<svg width="280" height="266" viewBox="0 0 280 266" fill="none" xmlns="http://www.w3.org/2000/svg">
<path d="M268.194 7.91467V55.8757H195.685L193.072 8.24642L268.194 7.91467Z" fill="#E0E0E0"/>
<path d="M193.072 8.24638V55.7749L265.581 55.7749V8.24638L193.072 8.24638Z" fill="white"/>
<path d="M265.93 56.1007H192.729V7.92053H265.93V56.1007ZM193.415 55.4491H265.238V8.57218H193.415V55.4491Z" fill="#E0E0E0"/>
<path d="M257.73 14.1527H200.929V49.8687H257.73V14.1527Z" fill="white"/>
<path d="M257.73 14.1528H257.45H256.645H253.527L241.823 14.1942L200.935 14.2713L201.097 14.1172C201.097 25.0293 201.097 37.1203 201.097 49.8273L200.923 49.6555L257.724 49.6911L257.58 49.8273C257.612 38.9567 257.637 30.047 257.655 23.8386C257.655 20.7403 257.687 18.3174 257.693 16.6527C257.693 15.8352 257.693 15.2072 257.693 14.7689C257.693 14.3364 257.693 14.1113 257.693 14.1113C257.693 14.1113 257.693 14.3186 257.693 14.7392C257.693 15.1599 257.693 15.7937 257.693 16.5994C257.693 18.2581 257.693 20.6692 257.73 23.7556C257.73 29.9818 257.774 38.9212 257.805 49.8214V49.9576H257.662L200.861 49.9932H200.68V49.8214C200.68 37.1143 200.68 25.0234 200.68 14.1113V13.9573H200.848L241.96 14.0758L253.627 14.1172H256.714H257.499L257.73 14.1528Z" fill="#E0E0E0"/>
<path d="M193.072 8.11609C193.519 8.32096 193.938 8.57765 194.319 8.88029C195.061 9.38976 196.071 10.1125 197.163 10.9419C198.254 11.7712 199.214 12.5532 199.888 13.1456C200.279 13.4374 200.629 13.7759 200.929 14.1527C199.547 13.2296 198.215 12.241 196.938 11.1907C195.584 10.2423 194.293 9.21552 193.072 8.11609Z" fill="#E0E0E0"/>
<path d="M265.587 8.24646C264.393 9.35887 263.117 10.3902 261.771 11.3329C260.495 12.3614 259.145 13.3037 257.73 14.1527C258.923 13.0387 260.198 12.0073 261.546 11.0663C262.822 10.0378 264.172 9.0955 265.587 8.24646Z" fill="#E0E0E0"/>
<path d="M265.525 55.781L257.418 49.5548L265.525 55.781Z" fill="white"/>
<path d="M257.443 49.5548C258.896 50.4522 260.284 51.4417 261.596 52.5168C262.983 53.5121 264.295 54.5968 265.525 55.7632C264.072 54.8659 262.684 53.8763 261.372 52.8012C259.986 51.8059 258.673 50.7212 257.443 49.5548Z" fill="#E0E0E0"/>
<path d="M193.072 55.7749C194.253 54.6716 195.516 53.65 196.851 52.7181C198.11 51.6982 199.446 50.7676 200.848 49.9338C199.667 51.036 198.405 52.0556 197.069 52.9847C195.81 54.0053 194.474 54.9378 193.072 55.7749Z" fill="#E0E0E0"/>
<path d="M212.459 25.278V37.2386H248.202V25.278H212.459Z" fill="#E0E0E0"/>
<path d="M215.571 264.953H279.861V87.6759H215.571L215.571 264.953Z" fill="#3A3E47"/>
<path d="M181.062 264.953H251.451L251.451 87.6759H181.062L181.062 264.953Z" fill="#F5F5F5"/>
<path d="M224.276 223.585H205.469C205.113 223.585 204.772 223.451 204.521 223.212C204.269 222.973 204.128 222.649 204.128 222.311V221.251H225.616V222.311C225.616 222.649 225.475 222.973 225.224 223.212C224.972 223.451 224.631 223.585 224.276 223.585Z" fill="#E0E0E0"/>
<path d="M184.174 221.251C184.174 221.251 184.174 221.464 184.174 221.891C184.174 222.317 184.174 222.963 184.174 223.793C184.174 225.481 184.174 227.939 184.136 231.109C184.136 237.477 184.093 246.636 184.062 257.85V257.986H184.205L246.93 258.022H247.142V257.85C247.142 244.9 247.142 232.548 247.142 221.304V221.15H246.949L201.69 221.186L188.776 221.216H185.352H184.473H184.186H184.498H185.39H188.844L201.802 221.269L246.949 221.387L246.78 221.227C246.78 232.483 246.78 244.823 246.78 257.773L246.961 257.607H246.924L184.199 257.642L184.336 257.773C184.305 246.594 184.28 237.459 184.261 231.115C184.261 227.939 184.261 225.463 184.23 223.769C184.23 222.928 184.23 222.288 184.23 221.844C184.23 221.399 184.174 221.251 184.174 221.251Z" fill="#E0E0E0"/>
<path d="M204.976 234.989H223.652V230.196H204.976V234.989Z" fill="#E0E0E0"/>
<path d="M225.13 180.932H206.329C205.974 180.932 205.633 180.798 205.381 180.559C205.13 180.32 204.989 179.996 204.989 179.658V178.598H226.471V179.658C226.471 179.996 226.329 180.32 226.078 180.559C225.826 180.798 225.485 180.932 225.13 180.932Z" fill="#E0E0E0"/>
<path d="M184.348 178.592C184.348 178.592 184.348 178.805 184.348 179.232C184.348 179.658 184.348 180.31 184.348 181.134C184.348 182.822 184.348 185.28 184.311 188.45C184.311 194.818 184.267 203.977 184.236 215.197V215.327H184.38L247.105 215.363H247.317V215.197C247.317 202.241 247.317 189.889 247.317 178.651V178.491H247.154L201.896 178.527L188.982 178.563H185.558H184.679H184.392H184.704H185.596H189.05L202.008 178.622L247.154 178.734L246.986 178.58C246.986 189.836 246.986 202.17 246.986 215.126L247.167 214.954H247.129L184.405 214.989L184.542 215.126C184.511 203.941 184.486 194.812 184.467 188.468C184.467 185.292 184.467 182.816 184.467 181.122C184.467 180.286 184.467 179.641 184.467 179.196C184.467 178.752 184.348 178.592 184.348 178.592Z" fill="#E0E0E0"/>
<path d="M206.385 192.046H225.061V187.253H206.385V192.046Z" fill="#E0E0E0"/>
<path d="M224.313 94.8499H205.506C205.151 94.8499 204.81 94.7157 204.558 94.4768C204.307 94.2379 204.165 93.914 204.165 93.5762V92.5158H225.654V93.5762C225.654 93.7434 225.619 93.9091 225.552 94.0636C225.484 94.2181 225.386 94.3585 225.261 94.4768C225.137 94.5951 224.989 94.6889 224.826 94.7529C224.663 94.8169 224.489 94.8499 224.313 94.8499Z" fill="#E0E0E0"/>
<path d="M184.205 92.5099C184.205 92.5099 184.205 92.7232 184.205 93.1497C184.205 93.5762 184.205 94.2279 184.205 95.0513C184.205 96.7397 184.205 99.1981 184.174 102.367C184.174 108.736 184.13 117.894 184.099 129.115V129.245H184.236L246.967 129.286H247.179V129.115C247.179 116.159 247.179 103.807 247.179 92.5691V92.4092H246.949L201.696 92.4447L188.776 92.4803H185.352H184.479H184.186C184.29 92.4854 184.394 92.4854 184.498 92.4803H185.39H188.851L201.802 92.5336L246.949 92.6461L246.78 92.4921C246.78 103.748 246.78 116.082 246.78 129.037L246.961 128.866L184.23 128.901L184.373 129.037C184.342 117.853 184.317 108.724 184.298 102.379C184.298 99.204 184.267 96.7278 184.261 95.0335C184.261 94.1982 184.261 93.5525 184.261 93.1082C184.261 92.6639 184.205 92.5099 184.205 92.5099Z" fill="#E0E0E0"/>
<path d="M205.905 105.104H224.581V100.312H205.905V105.104Z" fill="#E0E0E0"/>
<path d="M224.313 137.876H205.506C205.15 137.876 204.809 137.742 204.558 137.503C204.307 137.264 204.165 136.94 204.165 136.603V135.507H225.654V136.567C225.659 136.737 225.628 136.907 225.563 137.065C225.497 137.224 225.399 137.369 225.274 137.491C225.149 137.613 225 137.71 224.835 137.776C224.67 137.842 224.492 137.876 224.313 137.876Z" fill="#E0E0E0"/>
<path d="M184.205 135.518C184.205 135.518 184.205 135.732 184.205 136.158C184.205 136.585 184.205 137.23 184.205 138.06C184.205 139.748 184.205 142.207 184.174 145.376C184.174 151.744 184.13 160.903 184.099 172.117V172.247H184.236L246.967 172.283H247.179V172.111C247.179 159.161 247.179 146.81 247.179 135.566V135.412H246.949L201.696 135.447H188.776H185.352H184.479H184.186H184.498H185.39H188.851L201.802 135.501L246.949 135.619L246.78 135.459C246.78 146.715 246.78 159.055 246.78 172.004L246.961 171.839L184.23 171.874L184.373 172.004C184.342 160.826 184.317 151.691 184.298 145.346C184.298 142.171 184.267 139.695 184.261 138.001C184.261 137.159 184.261 136.52 184.261 136.075C184.261 135.631 184.205 135.518 184.205 135.518Z" fill="#E0E0E0"/>
<path d="M205.905 148.119H224.581V143.326H205.905V148.119Z" fill="#E0E0E0"/>
<path d="M82.0953 6.71802H14.6936V64.0034H82.0953V6.71802Z" fill="#FAFAFA"/>
<path d="M82.0953 64.0035C82.0953 64.0035 82.0953 63.6362 82.0953 62.9372C82.0953 62.2381 82.0953 61.2073 82.0953 59.8685C82.0953 57.179 82.0953 53.2514 82.0517 48.2396C82.0517 38.2339 82.008 23.9511 81.9768 6.71806L82.1265 6.86024H14.731L14.9118 6.68844C14.9118 27.5292 14.9118 47.1378 14.9118 63.9739L14.7497 63.8198L63.5004 63.8969L77.2502 63.9383H80.8918H81.8272H82.1514H81.8459H80.923H77.3187L63.6002 63.9739L14.7497 64.0509H14.5938V63.9028C14.5938 47.0667 14.5938 27.4581 14.5938 6.61735V6.44556H14.7809H82.1764H82.3323V6.59366C82.2948 23.8444 82.2699 38.1747 82.2512 48.21C82.2512 53.204 82.22 57.0961 82.2138 59.8033C82.2138 61.1303 82.2138 62.173 82.2138 62.8483C82.2138 63.5236 82.0953 64.0035 82.0953 64.0035Z" fill="#E0E0E0"/>
<path d="M40.5468 16.8956C40.5468 16.9903 36.9987 17.0673 32.6212 17.0673C28.2438 17.0673 24.7019 16.9903 24.7019 16.8956C24.7019 16.8008 28.2438 16.7238 32.6212 16.7238C36.9987 16.7238 40.5468 16.8008 40.5468 16.8956Z" fill="#E0E0E0"/>
<path d="M69.1001 21.1845C69.1001 21.2793 59.3537 21.3563 47.3313 21.3563C35.3088 21.3563 25.5811 21.2911 25.5811 21.1845C25.5811 21.0779 35.3275 21.0127 47.35 21.0127C59.3724 21.0127 69.1001 21.1016 69.1001 21.1845Z" fill="#E0E0E0"/>
<path d="M27.6451 28.4829H24.8079V31.1783H27.6451V28.4829Z" fill="#E0E0E0"/>
<path d="M34.6354 28.4829H31.7981V31.1783H34.6354V28.4829Z" fill="#E0E0E0"/>
<path d="M41.7565 28.3585H38.9193V31.054H41.7565V28.3585Z" fill="#E0E0E0"/>
<path d="M48.6158 28.4829H45.7785V31.1783H48.6158V28.4829Z" fill="#E0E0E0"/>
<path d="M55.606 28.4829H52.7688V31.1783H55.606V28.4829Z" fill="#E0E0E0"/>
<path d="M62.5963 28.4829H59.759V31.1783H62.5963V28.4829Z" fill="#E0E0E0"/>
<path d="M69.5865 28.4829H66.7492V31.1783H69.5865V28.4829Z" fill="#EBEBEB"/>
<path d="M27.6451 34.2174H24.8079V36.9128H27.6451V34.2174Z" fill="#EBEBEB"/>
<path d="M34.6354 34.2174H31.7981V36.9128H34.6354V34.2174Z" fill="#E0E0E0"/>
<path d="M41.6256 34.2174H38.7883V36.9128H41.6256V34.2174Z" fill="#EBEBEB"/>
<path d="M48.6158 34.2174H45.7785V36.9128H48.6158V34.2174Z" fill="#E0E0E0"/>
<path d="M55.606 34.2174H52.7688V36.9128H55.606V34.2174Z" fill="#E0E0E0"/>
<path d="M62.7209 34.093H59.8837V36.7885H62.7209V34.093Z" fill="#E0E0E0"/>
<path d="M69.5865 34.2174H66.7492V36.9128H69.5865V34.2174Z" fill="#E0E0E0"/>
<path d="M27.6451 39.9519H24.8079V42.6473H27.6451V39.9519Z" fill="#E0E0E0"/>
<path d="M34.7663 39.8275H31.929V42.5229H34.7663V39.8275Z" fill="#E0E0E0"/>
<path d="M41.6256 39.9519H38.7883V42.6473H41.6256V39.9519Z" fill="#E0E0E0"/>
<path d="M48.6158 39.9519H45.7785V42.6473H48.6158V39.9519Z" fill="#EBEBEB"/>
<path d="M55.606 39.9519H52.7688V42.6473H55.606V39.9519Z" fill="#E0E0E0"/>
<path d="M62.5963 39.9519H59.759V42.6473H62.5963V39.9519Z" fill="#E0E0E0"/>
<path d="M69.5865 39.9519H66.7492V42.6473H69.5865V39.9519Z" fill="#E0E0E0"/>
<path d="M27.6451 45.6863H24.8079V48.3817H27.6451V45.6863Z" fill="#E0E0E0"/>
<path d="M34.6354 45.6863H31.7981V48.3817H34.6354V45.6863Z" fill="#E0E0E0"/>
<path d="M41.6256 45.6863H38.7883V48.3817H41.6256V45.6863Z" fill="#E0E0E0"/>
<path d="M48.7467 45.5679H45.9095V48.2633H48.7467V45.5679Z" fill="#E0E0E0"/>
<path d="M55.606 45.6863H52.7688V48.3817H55.606V45.6863Z" fill="#E0E0E0"/>
<path d="M62.5963 45.6863H59.759V48.3817H62.5963V45.6863Z" fill="#EBEBEB"/>
<path d="M69.5865 45.6863H66.7492V48.3817H69.5865V45.6863Z" fill="#E0E0E0"/>
<path d="M27.6451 51.4208H24.8079V54.1162H27.6451V51.4208Z" fill="#E0E0E0"/>
<path d="M34.6354 51.4208H31.7981V54.1162H34.6354V51.4208Z" fill="#EBEBEB"/>
<path d="M41.6256 51.4208H38.7883V54.1162H41.6256V51.4208Z" fill="#E0E0E0"/>
<path d="M48.6158 51.4208H45.7785V54.1162H48.6158V51.4208Z" fill="#E0E0E0"/>
<path d="M55.606 51.4208H52.7688V54.1162H55.606V51.4208Z" fill="#E0E0E0"/>
<path d="M62.7209 51.3022H59.8837V53.9977H62.7209V51.3022Z" fill="#E0E0E0"/>
<path d="M69.5865 51.4208H66.7492V54.1162H69.5865V51.4208Z" fill="#E0E0E0"/>
<path d="M138.752 92.0129L115.508 100.326L121.407 115.212L144.651 106.899L138.752 92.0129Z" fill="#EBEBEB"/>
<path d="M138.896 92.1782C138.862 92.2758 138.816 92.3692 138.759 92.4567L138.329 93.2268C137.93 93.908 137.375 94.8677 136.695 96.0407C135.286 98.4103 133.353 101.692 131.22 105.312L131.176 105.389H131.083L130.871 105.324L120.096 101.965L116.834 100.922L115.955 100.632C115.849 100.602 115.747 100.563 115.65 100.513C115.757 100.532 115.864 100.558 115.968 100.59L116.866 100.845L120.146 101.823L130.964 105.093L131.176 105.158L131.039 105.211C133.203 101.603 135.149 98.3451 136.577 95.9696L138.267 93.1853L138.74 92.433C138.784 92.3438 138.836 92.2586 138.896 92.1782Z" fill="#E0E0E0"/>
<path d="M121.549 115.377C121.492 115.377 122.428 112.693 123.65 109.423C124.872 106.153 125.901 103.499 125.957 103.541C126.013 103.582 125.078 106.23 123.862 109.465C122.646 112.699 121.611 115.377 121.549 115.377Z" fill="#E0E0E0"/>
<path d="M133.615 100.596C133.646 100.543 136.178 101.953 139.264 103.736C142.351 105.519 144.826 107.012 144.795 107.065C144.764 107.119 142.232 105.709 139.146 103.92C136.059 102.131 133.584 100.644 133.615 100.596Z" fill="#E0E0E0"/>
<path d="M168.853 45.0288C169.447 44.6865 170.086 44.4215 170.755 44.2409L171.147 42.4637L174.328 42.4104L174.789 44.1876C175.463 44.344 176.111 44.5872 176.716 44.9103L178.325 43.9092L180.613 46.0063L179.615 47.5702C179.975 48.1242 180.254 48.7221 180.445 49.3474L182.316 49.7147L182.372 52.7419L180.501 53.1744C180.335 53.8151 180.081 54.4325 179.746 55.0108L180.8 56.5333L178.587 58.7074L176.947 57.7655C176.351 58.1036 175.712 58.3664 175.045 58.5475L174.652 60.3247L171.472 60.378L171.01 58.6008C170.337 58.4418 169.689 58.1988 169.083 57.8781L167.475 58.8792L165.186 56.7762L166.184 55.2182C165.822 54.6544 165.543 54.0466 165.354 53.4113L163.484 53.0381L163.428 50.0169L165.298 49.5785C165.464 48.9393 165.717 48.3237 166.053 47.748L164.999 46.2196L167.213 44.0454L168.853 44.9933V45.0288ZM170.549 49.0512C170.078 49.5125 169.762 50.0961 169.641 50.7281C169.52 51.36 169.598 52.012 169.867 52.6014C170.136 53.1908 170.583 53.6912 171.151 54.0392C171.72 54.3872 172.384 54.5673 173.06 54.5565C173.736 54.5457 174.394 54.3446 174.949 53.9786C175.505 53.6127 175.934 53.0983 176.182 52.5006C176.43 51.903 176.485 51.2489 176.342 50.6211C176.198 49.9934 175.862 49.4203 175.375 48.9742C175.055 48.6764 174.676 48.4415 174.26 48.283C173.844 48.1245 173.399 48.0455 172.95 48.0504C172.502 48.0554 172.059 48.1442 171.647 48.3119C171.235 48.4796 170.862 48.7227 170.549 49.0275V49.0512Z" fill="#E0E0E0"/>
<path d="M170.549 49.0275C170.726 48.8216 170.937 48.6437 171.172 48.5003C171.583 48.247 172.046 48.0797 172.53 48.0093C173.014 47.9389 173.508 47.9672 173.98 48.0921C174.452 48.217 174.89 48.4358 175.266 48.7339C175.642 49.032 175.947 49.4027 176.161 49.8213C176.469 50.4114 176.585 51.0759 176.491 51.7289C176.391 52.4322 176.059 53.0874 175.544 53.6009C175.024 54.1101 174.347 54.4484 173.61 54.5665C173.264 54.6197 172.91 54.6197 172.563 54.5665C172.227 54.5267 171.899 54.4388 171.59 54.3058C171.021 54.0605 170.53 53.6762 170.168 53.1921C169.858 52.7684 169.657 52.2814 169.582 51.7703C169.464 51.0314 169.623 50.2766 170.031 49.6377C170.173 49.4145 170.352 49.2145 170.561 49.0453C170.561 49.0453 170.355 49.2585 170.094 49.7028C169.727 50.3366 169.596 51.0688 169.719 51.7822C169.8 52.2699 170.001 52.7326 170.306 53.1329C170.654 53.5898 171.123 53.9514 171.665 54.1814C171.956 54.3043 172.265 54.3861 172.582 54.4243C172.912 54.4745 173.249 54.4745 173.579 54.4243C174.275 54.3117 174.914 53.9923 175.406 53.512C175.894 53.0237 176.209 52.402 176.304 51.7348C176.383 51.1268 176.277 50.5103 175.999 49.9576C175.74 49.4482 175.344 49.0128 174.851 48.6958C174.42 48.4222 173.926 48.2497 173.411 48.1922C172.658 48.0996 171.894 48.2498 171.241 48.6187C170.767 48.8498 170.567 49.069 170.549 49.0275Z" fill="#E0E0E0"/>
<path d="M168.853 45.0289L168.747 44.9755L168.435 44.8037L167.188 44.1047H167.225L165.03 46.2966V46.2374L166.09 47.7598C165.757 48.3335 165.508 48.9472 165.348 49.5844V49.62H165.311L163.44 50.0643L163.49 49.9991C163.49 50.947 163.534 51.96 163.552 53.0204L163.496 52.9493L165.367 53.3166H165.411V53.358C165.601 53.9825 165.878 54.5801 166.234 55.1353V55.1767V55.2182L165.261 56.8592V56.7525L167.556 58.8496H167.443L169.046 57.8425L169.096 57.8129L169.146 57.8425C169.746 58.1587 170.387 58.3978 171.054 58.5534H171.11V58.6067L171.565 60.384L171.472 60.3188L174.652 60.2655L174.558 60.3366C174.683 59.7442 174.82 59.1518 174.951 58.5593V58.506H175.007C175.666 58.3307 176.295 58.0696 176.878 57.73H176.934H176.984L178.624 58.6778H178.506L180.713 56.5037V56.6163C180.358 56.1009 180.002 55.5914 179.659 55.0879L179.628 55.0405V54.9931C179.963 54.4235 180.217 53.8138 180.382 53.1803V53.127H180.439L182.309 52.6946L182.241 52.7834C182.241 51.7526 182.222 50.7455 182.185 49.7622L182.259 49.8451L180.389 49.466H180.339V49.4126C180.153 48.7886 179.88 48.1909 179.528 47.6354V47.594V47.5525L180.526 45.9885V46.0833L178.244 43.9803H178.337L176.728 44.9755H176.691H176.654C176.051 44.6575 175.408 44.4165 174.739 44.2587H174.702V44.2232C174.54 43.5775 174.39 42.9969 174.247 42.446L174.309 42.4874L171.122 42.523H171.166C171.004 43.2339 170.873 43.8203 170.761 44.3002C170.259 44.4302 169.772 44.6089 169.308 44.8334L168.965 44.9992L168.846 45.0585C168.878 45.0305 168.914 45.0066 168.952 44.9874L169.289 44.8037C169.752 44.5694 170.239 44.3808 170.742 44.241C170.842 43.7552 170.967 43.1687 171.116 42.4637V42.4282H171.154L174.334 42.363H174.384V42.4045C174.527 42.9554 174.683 43.536 174.851 44.1817L174.801 44.1402C175.483 44.2972 176.14 44.5403 176.753 44.863H176.678L178.287 43.8618L178.337 43.8263L178.381 43.8677L180.669 45.9649L180.719 46.0063L180.682 46.0596L179.69 47.6236V47.5406C180.055 48.1098 180.336 48.7237 180.526 49.3652L180.464 49.306L182.334 49.6733H182.403V49.7385C182.403 50.7219 182.446 51.7289 182.465 52.7597V52.8308H182.39L180.52 53.2692L180.588 53.204C180.421 53.8518 180.163 54.4753 179.821 55.0582V54.9516L180.881 56.48L180.919 56.5393L180.869 56.5926L178.655 58.7667L178.605 58.82L178.537 58.7845L176.89 57.8366H176.99C176.391 58.1826 175.745 58.4497 175.07 58.6304L175.138 58.5593C175.001 59.1518 174.87 59.7856 174.745 60.3366V60.4136H174.671L171.49 60.461H171.416V60.3899C171.253 59.7975 171.098 59.1695 170.954 58.6127L171.023 58.6778C170.342 58.5163 169.686 58.2713 169.071 57.9492H169.171L167.562 58.9503L167.499 58.9859L167.45 58.9385L165.161 56.8355L165.111 56.794L165.149 56.7347C165.498 56.1897 165.835 55.6566 166.146 55.1767V55.2597C165.784 54.6878 165.505 54.0721 165.317 53.4291L165.373 53.4825L163.502 53.1092H163.44V53.05C163.44 51.9896 163.403 50.9825 163.39 50.0287V49.9754H163.44L165.311 49.543L165.261 49.62C165.429 48.9742 165.687 48.3526 166.028 47.7717V47.8309C165.647 47.28 165.298 46.7646 164.98 46.2966L167.2 44.1343L168.447 44.8452L168.753 45.0348C168.821 44.9992 168.853 45.0229 168.853 45.0289Z" fill="#E0E0E0"/>
<path d="M14.6687 258.928C13.5275 258.004 10.9896 255.06 12.9476 251.641C13.6647 250.391 15.1925 249.769 16.5705 249.218C17.9486 248.668 19.4016 248.188 20.5427 247.264C22.7002 245.522 23.2926 242.631 24.7206 240.309C26.3668 237.643 29.4286 235.641 32.6649 235.783C36.4063 235.943 39.4618 238.822 40.8648 242.098C42.2679 245.374 42.3178 249.017 42.3427 252.56C42.3427 254.52 42.2679 256.706 40.7526 258.051C39.362 259.272 37.2606 259.283 35.3712 259.236L15.1114 258.644" fill="#F5F5F5"/>
<path d="M53.4111 206.014H0.139435L9.73618 260.373C9.93334 261.506 10.4653 262.563 11.2701 263.42C12.0749 264.277 13.1195 264.899 14.282 265.213L14.4691 265.267C14.625 265.302 14.7809 265.355 14.943 265.379C15.3003 265.449 15.6634 265.488 16.028 265.498V265.551L16.2899 265.509H40.0417C40.4791 265.51 40.9155 265.47 41.345 265.391C42.7344 265.186 44.0146 264.553 44.9889 263.59C45.9633 262.627 46.5781 261.386 46.7389 260.059L51.3595 222.602L51.5715 221.109L53.4048 206.299L53.4111 206.014ZM43.3653 240.682H37.8966L38.4454 224.906H44.7808L43.3653 240.682ZM45.3109 224.906H50.5239L48.5722 240.682H43.8954L45.3109 224.906ZM29.7216 258.176L29.3911 244.467H37.2356L36.7555 258.176H29.7216ZM21.1787 244.467H28.8299L29.1604 258.176H22.3011L21.1787 244.467ZM21.8023 258.176H15.3608C14.7372 254.473 13.9578 249.663 13.0972 244.467H20.6487L21.8023 258.176ZM20.9043 240.682L19.6135 224.906H28.356L28.7364 240.682H20.9043ZM29.2976 240.682L28.9172 224.906H37.9153L37.3666 240.682H29.2976ZM28.8237 221.133L28.4682 206.524H38.5638L38.0525 221.121L28.8237 221.133ZM28.2936 221.133H19.2706L18.0983 206.512H27.9133L28.2936 221.133ZM18.7218 221.121H9.22486C8.88813 219.107 8.57011 217.193 8.27703 215.475C7.28555 209.551 6.91141 207.347 6.70563 206.512H17.5433L18.7218 221.121ZM19.0336 224.906L20.3244 240.682H12.4861C12.218 239.082 11.9499 237.465 11.6817 235.842L9.86713 224.906H19.0336ZM11.9374 240.682H6.79293L4.01181 224.906H9.31839C10.129 229.782 11.0332 235.208 11.9374 240.682ZM12.561 244.467C13.3467 249.207 14.1136 253.887 14.8245 258.176H9.88584L7.46015 244.467H12.561ZM37.2855 258.176L37.7657 244.467H43.0411L41.7939 258.176H37.2855ZM38.5763 221.121L39.0877 206.512H46.4333L45.1238 221.121H38.5763ZM6.20054 206.512C6.41255 207.566 7.38532 213.319 8.69482 221.121H3.34459L0.763005 206.512H6.20054ZM46.4395 258.176H42.3177L43.5649 244.467H48.1419L46.4395 258.176ZM51.0165 221.121H45.6539L46.9696 206.512H52.8187L51.0165 221.121Z" fill="#E0E0E0"/>
<path d="M270.332 264.953C270.332 265.041 213.238 265.107 142.819 265.107C72.3987 265.107 15.2922 265.041 15.2922 264.953C15.2922 264.864 72.3738 264.799 142.819 264.799C213.263 264.799 270.332 264.87 270.332 264.953Z" fill="#263238"/>
<path d="M216.013 130.086C216.013 130.086 223.378 122.035 226.159 113.979C228.94 105.922 227.618 106.87 227.618 106.87C227.618 106.87 223.876 114.69 221.021 118.469C218.165 122.249 213.095 127.794 213.095 127.794L216.013 130.086Z" fill="#455A64"/>
<path d="M214.523 108.102C214.573 108.02 214.651 107.958 214.745 107.925C214.838 107.892 214.94 107.891 215.035 107.921C215.129 107.952 215.209 108.013 215.261 108.093C215.313 108.174 215.334 108.269 215.321 108.363C214.872 111.194 213.899 117.841 213.937 122.136C213.987 127.728 213.937 129.891 213.937 129.891H210.869C210.869 129.891 211.418 118.327 212.116 114.802C212.569 112.469 213.38 110.212 214.523 108.102Z" fill="#455A64"/>
<path d="M212.877 128.955C211.59 126.189 210.739 123.259 210.351 120.258C210.102 118.197 210.551 115.412 211.218 111.704C211.477 110.335 211.609 108.948 211.611 107.557C211.607 107.404 211.551 107.255 211.45 107.136C211.349 107.016 211.21 106.931 211.053 106.894C210.896 106.857 210.731 106.87 210.583 106.931C210.434 106.992 210.312 107.097 210.233 107.231C209.491 108.531 208.917 109.912 208.524 111.342C207.782 115.009 206.94 116.84 207.583 120.323C208.225 123.807 210.601 129.156 210.601 129.156L212.877 128.955Z" fill="#455A64"/>
<path d="M210.114 129.186C210.114 129.186 202.008 112.675 201.465 110.229C200.923 107.782 199.002 102.131 198.778 102.45C198.553 102.77 198.217 105.756 199.676 109.162C201.135 112.569 207.352 129.689 207.352 129.689H210.114" fill="#455A64"/>
<path d="M213.762 128.451C213.762 128.451 213.843 128.404 213.987 128.303C214.13 128.202 214.348 128.054 214.61 127.847C215.365 127.273 216.089 126.664 216.78 126.022C219.051 123.892 221.017 121.488 222.629 118.872C224.25 116.257 225.599 113.5 226.658 110.637C227.069 109.542 227.362 108.647 227.556 108.019C227.655 107.711 227.724 107.468 227.768 107.302C227.798 107.22 227.819 107.134 227.83 107.047C227.83 107.047 227.792 107.13 227.736 107.29L227.493 108.001C227.281 108.594 226.963 109.512 226.545 110.602C225.462 113.444 224.11 116.186 222.505 118.795C220.895 121.403 218.944 123.808 216.699 125.951C215.839 126.769 215.097 127.391 214.573 127.811L213.949 128.285C213.882 128.335 213.819 128.391 213.762 128.451Z" fill="#263238"/>
<path d="M212.877 120.531C212.917 120.371 212.942 120.209 212.952 120.045C212.989 119.701 213.039 119.257 213.095 118.718C213.226 117.604 213.425 116.064 213.719 114.37C214.012 112.675 214.342 111.153 214.573 110.057L214.866 108.754C214.911 108.597 214.94 108.436 214.953 108.274C214.892 108.427 214.84 108.583 214.797 108.742C214.71 109.044 214.592 109.482 214.448 110.033C214.174 111.123 213.825 112.646 213.55 114.346C213.276 116.046 213.083 117.586 212.983 118.706C212.933 119.269 212.902 119.725 212.889 120.039C212.868 120.202 212.863 120.367 212.877 120.531Z" fill="#263238"/>
<path d="M210.981 107.13C210.944 107.197 210.912 107.266 210.887 107.338L210.644 107.93C210.538 108.197 210.414 108.523 210.295 108.914C210.177 109.305 210.021 109.737 209.902 110.235C209.84 110.484 209.771 110.744 209.703 111.011C209.634 111.277 209.59 111.568 209.528 111.864C209.391 112.456 209.31 113.084 209.216 113.748C209.038 115.2 208.974 116.664 209.023 118.126C209.084 119.589 209.255 121.046 209.534 122.486C209.684 123.143 209.815 123.771 209.99 124.346C210.077 124.636 210.145 124.938 210.233 125.181L210.488 125.945C210.644 126.431 210.831 126.858 210.981 127.237C211.131 127.616 211.274 127.936 211.405 128.19L211.692 128.783C211.722 128.853 211.76 128.921 211.804 128.984C211.804 128.984 211.804 128.907 211.723 128.765C211.642 128.623 211.573 128.41 211.461 128.173C211.349 127.936 211.212 127.58 211.075 127.207C210.937 126.834 210.75 126.401 210.607 125.916L210.357 125.151C210.276 124.891 210.208 124.606 210.127 124.316C209.958 123.724 209.834 123.131 209.69 122.462C209.423 121.03 209.254 119.584 209.185 118.131C209.141 116.678 209.202 115.223 209.366 113.777C209.46 113.114 209.534 112.48 209.659 111.899C209.721 111.603 209.765 111.307 209.827 111.052C209.89 110.797 209.958 110.519 210.014 110.276C210.127 109.779 210.27 109.34 210.382 108.949C210.495 108.558 210.607 108.232 210.7 107.96L210.912 107.338C210.944 107.272 210.967 107.202 210.981 107.13Z" fill="#263238"/>
<path d="M198.871 102.782C198.871 102.782 198.871 102.782 198.871 102.859V103.072C198.909 103.262 198.952 103.54 199.033 103.896C199.189 104.607 199.451 105.626 199.857 106.858C200.262 108.09 200.811 109.547 201.465 111.147C202.12 112.746 202.875 114.488 203.592 116.342C204.309 118.197 204.883 119.997 205.413 121.638C205.943 123.279 206.429 124.749 206.909 125.969C207.27 126.93 207.686 127.871 208.156 128.789C208.318 129.115 208.468 129.381 208.568 129.529L208.68 129.719C208.692 129.74 208.707 129.76 208.724 129.778C208.716 129.753 208.705 129.73 208.693 129.707L208.599 129.511C208.512 129.34 208.375 129.091 208.219 128.765C207.752 127.84 207.335 126.893 206.971 125.927C206.504 124.707 206.024 123.238 205.506 121.597C204.989 119.956 204.427 118.143 203.698 116.265C202.968 114.387 202.214 112.669 201.559 111.076C200.904 109.482 200.312 108.037 199.913 106.805C199.514 105.572 199.221 104.554 199.04 103.843C198.952 103.493 198.896 103.215 198.853 103.031L198.796 102.818L198.871 102.782Z" fill="#263238"/>
<path d="M223.808 99.1389C223.92 99.0386 224.064 98.9763 224.217 98.9616C224.37 98.9469 224.524 98.9807 224.655 99.0577C224.786 99.1347 224.886 99.2507 224.94 99.3875C224.995 99.5243 225 99.6743 224.955 99.8142C224.674 100.662 224.334 101.491 223.939 102.296C222.823 104.542 219.574 112.592 218.027 117.018C216.481 121.443 214.348 129.689 214.348 129.689L211.081 129.186C211.081 129.186 214.068 115.631 216.986 110.744C219.331 106.816 221.675 101.159 223.808 99.1389Z" fill="#455A64"/>
<path d="M217.136 119.784C217.065 119.9 217.009 120.023 216.967 120.151C216.874 120.394 216.743 120.744 216.593 121.194C216.294 122.077 215.926 123.315 215.552 124.689C215.178 126.064 214.872 127.308 214.66 128.214C214.56 128.647 214.479 129.002 214.417 129.292C214.378 129.422 214.355 129.555 214.348 129.689C214.407 129.566 214.451 129.437 214.479 129.304C214.56 129.026 214.66 128.664 214.779 128.244L215.72 124.731C216.088 123.356 216.437 122.118 216.712 121.23C216.836 120.809 216.949 120.454 217.03 120.175C217.081 120.049 217.116 119.918 217.136 119.784Z" fill="#263238"/>
<path d="M212.708 129.44V129.357L212.746 129.115C212.777 128.895 212.808 128.581 212.877 128.173C212.995 127.355 213.213 126.182 213.563 124.754C213.979 123.077 214.489 121.422 215.09 119.796C215.758 117.96 216.599 115.975 217.553 113.919C219.474 109.814 221.388 106.177 222.648 103.481C223.272 102.142 223.783 101.046 224.107 100.282C224.269 99.8972 224.388 99.601 224.475 99.3995C224.512 99.3048 224.537 99.2277 224.562 99.1685C224.587 99.1093 224.594 99.0856 224.562 99.0856L224.525 99.1626C224.494 99.2218 224.463 99.2929 224.419 99.3877C224.319 99.595 224.188 99.8853 224.02 100.253C223.677 101.011 223.166 102.101 222.517 103.434C221.226 106.111 219.293 109.743 217.366 113.854C216.412 115.91 215.577 117.9 214.916 119.749C214.317 121.379 213.817 123.04 213.419 124.725C213.151 125.861 212.942 127.01 212.796 128.167C212.739 128.569 212.721 128.895 212.696 129.109V129.351C212.7 129.411 212.704 129.44 212.708 129.44Z" fill="#263238"/>
<path d="M211.081 129.186C211.133 129.015 211.171 128.841 211.193 128.664C211.255 128.303 211.343 127.823 211.449 127.243C211.673 126.058 212.016 124.381 212.509 122.58C213.001 120.779 213.55 119.174 213.974 118.025C214.18 117.468 214.355 117.012 214.486 116.662C214.556 116.499 214.612 116.331 214.654 116.159C214.565 116.313 214.488 116.473 214.423 116.639C214.28 116.953 214.08 117.409 213.856 117.983C213.27 119.476 212.764 120.997 212.34 122.539C211.848 124.316 211.524 126.01 211.324 127.219C211.23 127.811 211.162 128.315 211.124 128.658C211.096 128.833 211.081 129.009 211.081 129.186Z" fill="#263238"/>
<path d="M204.384 143.492H217.123V128.741H204.384V143.492Z" fill="#FED36A"/>
<g opacity="0.3">
<path d="M204.384 143.492H217.123V128.741H204.384V143.492Z" fill="black"/>
</g>
<path d="M208.443 143.492H219.748V128.741H208.443V143.492Z" fill="#FED36A"/>
<path d="M102.626 7.25838L78.9718 14.4518L84.0761 29.6006L107.731 22.4072L102.626 7.25838Z" fill="#FED36A"/>
<path d="M102.767 7.40527C102.723 7.50039 102.671 7.59159 102.611 7.67778C102.492 7.86735 102.336 8.11616 102.137 8.42421L100.36 11.1611L94.4046 20.1597L94.3547 20.2308H94.2674L94.0616 20.1538L83.4609 16.2913L80.262 15.1065L79.3953 14.7748C79.2916 14.7399 79.1914 14.6963 79.0959 14.6444C79.2026 14.6645 79.307 14.6943 79.4077 14.7333L80.2932 15.0295L83.5171 16.161L94.1178 19.9701L94.3298 20.0412L94.1926 20.0886L100.21 11.1196C100.977 9.99407 101.601 9.07585 102.05 8.42421L102.555 7.69555C102.616 7.59287 102.687 7.49572 102.767 7.40527Z" fill="#263238"/>
<path d="M84.1967 29.7507C84.1406 29.7507 85.2194 27.1086 86.6037 23.9036C87.988 20.6987 89.1666 18.1159 89.2227 18.1396C89.2788 18.1633 88.2063 20.7817 86.8157 23.9866C85.4252 27.1915 84.2716 29.7744 84.1967 29.7507Z" fill="#263238"/>
<path d="M97.0423 15.5567C97.0797 15.5093 99.5366 17.0377 102.517 18.969C105.498 20.9002 107.905 22.5234 107.867 22.5234C107.83 22.5234 105.373 21.0483 102.393 19.1171C99.4119 17.1858 97.0049 15.6101 97.0423 15.5567Z" fill="#263238"/>
<path d="M207.14 40.1001L189.536 33.0327C188.961 32.7931 188.508 32.3483 188.275 31.7942C188.041 31.2401 188.047 30.6211 188.289 30.0707L198.616 6.91954C198.867 6.37197 199.335 5.94048 199.918 5.71868C200.502 5.49687 201.154 5.50264 201.733 5.73474L212.902 10.2252L217.765 22.168L210.283 38.9508C210.024 39.4969 209.548 39.9238 208.96 40.139C208.371 40.3541 207.717 40.3402 207.14 40.1001Z" fill="#FED36A"/>
<path d="M212.895 10.1659L209.99 16.6823C209.875 16.9378 209.814 17.2123 209.811 17.4902C209.808 17.768 209.863 18.0436 209.972 18.3013C210.082 18.5589 210.244 18.7934 210.449 18.9914C210.654 19.1893 210.899 19.3468 211.168 19.4548L217.759 22.1087L212.895 10.1659Z" fill="#FED36A"/>
<g opacity="0.2">
<path d="M209.821 17.2925C209.61 17.788 209.581 18.3368 209.74 18.8498C209.898 19.3629 210.235 19.8099 210.694 20.1182C210.756 20.167 210.821 20.2124 210.888 20.2545C211.686 20.7462 216.924 23.9866 216.98 23.8622L217.759 22.085L211.168 19.4311C211.168 19.4311 209.534 18.7379 209.821 17.2925Z" fill="black"/>
</g>
<g opacity="0.3">
<path d="M212.895 10.1659L209.99 16.6823C209.875 16.9378 209.814 17.2123 209.811 17.4902C209.808 17.768 209.863 18.0436 209.972 18.3013C210.082 18.5589 210.244 18.7934 210.449 18.9914C210.654 19.1893 210.899 19.3468 211.168 19.4548L217.759 22.1087L212.895 10.1659Z" fill="white"/>
</g>
<path d="M208.63 15.8529C207.211 15.4605 205.827 14.9633 204.49 14.366C203.108 13.8704 201.768 13.2763 200.48 12.5887C201.902 12.9773 203.289 13.4746 204.627 14.0757C206.008 14.5675 207.347 15.1617 208.63 15.8529Z" fill="#FAFAFA"/>
<path d="M212.247 21.6229C212.21 21.7059 209.179 20.5685 205.475 19.0756C201.771 17.5827 198.803 16.315 198.84 16.2261C198.878 16.1373 201.908 17.2865 205.612 18.7735C209.316 20.2604 212.284 21.54 212.247 21.6229Z" fill="#FAFAFA"/>
<path d="M212.085 25.1893C212.047 25.2722 208.742 24.0044 204.708 22.399C200.673 20.7936 197.431 19.4074 197.468 19.3067C197.506 19.206 200.804 20.4915 204.845 22.0969C208.886 23.7023 212.122 25.1004 212.085 25.1893Z" fill="#FAFAFA"/>
<path d="M210.781 28.092C210.744 28.1749 207.445 26.9072 203.411 25.3018C199.376 23.6963 196.134 22.2924 196.165 22.2094C196.196 22.1265 199.507 23.3942 203.542 24.9996C207.576 26.605 210.825 28.0031 210.781 28.092Z" fill="#FAFAFA"/>
<path d="M209.497 30.9889C209.46 31.0778 206.155 29.8041 202.12 28.2046C198.086 26.6051 194.843 25.1952 194.88 25.1122C194.918 25.0293 198.217 26.2971 202.257 27.9025C206.298 29.5079 209.534 30.906 209.497 30.9889Z" fill="#FAFAFA"/>
<path d="M208.2 33.8916C208.162 33.9805 204.858 32.7068 200.823 31.1073C196.789 29.5078 193.546 28.0979 193.583 28.015C193.621 27.932 196.926 29.1998 200.96 30.7993C204.995 32.3987 208.237 33.8087 208.2 33.8916Z" fill="#FAFAFA"/>
<path d="M147.938 45.0111C160.801 45.0111 171.228 35.1048 171.228 22.8848C171.228 10.6648 160.801 0.758545 147.938 0.758545C135.075 0.758545 124.648 10.6648 124.648 22.8848C124.648 35.1048 135.075 45.0111 147.938 45.0111Z" fill="white"/>
<path d="M171.228 22.8848C171.228 22.8848 171.228 22.7663 171.191 22.5294C171.154 22.2924 171.147 21.937 171.116 21.4749C171.116 21.2439 171.085 20.9891 171.066 20.7048C171.048 20.4204 170.973 20.1124 170.923 19.7806C170.818 19.0103 170.656 18.2481 170.436 17.4999C169.893 15.4305 169.022 13.4512 167.855 11.6292C166.164 8.95253 163.896 6.64644 161.199 4.86265C158.502 3.07886 155.439 1.85782 152.21 1.27988C151.244 1.10928 150.266 1.00239 149.285 0.959977C148.786 0.959977 148.281 0.894811 147.776 0.900735L146.242 0.977748C145.986 0.977748 145.724 0.977749 145.469 1.02514L144.696 1.1377C144.184 1.22063 143.66 1.27987 143.143 1.38058C141.02 1.83359 138.968 2.54648 137.038 3.50139C136.552 3.7502 136.084 4.0464 135.598 4.3189C135.361 4.46108 135.111 4.58549 134.881 4.74543L134.201 5.23121C132.313 6.53378 130.661 8.1206 129.312 9.92897L128.782 10.6043L128.314 11.327L127.847 12.0261C127.682 12.2642 127.536 12.5137 127.41 12.7725C127.154 13.2879 126.893 13.8033 126.624 14.3246L126.001 15.9478C125.24 18.1905 124.836 20.5287 124.804 22.8848C124.836 25.239 125.24 27.5753 126.001 29.816C126.207 30.361 126.419 30.906 126.624 31.4451C126.83 31.9841 127.148 32.4818 127.41 32.9912C127.534 33.2526 127.68 33.5042 127.847 33.7436L128.314 34.4722L128.776 35.195L129.312 35.8703C130.004 36.7681 130.76 37.6193 131.576 38.4176C132.4 39.1789 133.277 39.8874 134.201 40.5385L134.881 41.0242C135.111 41.1842 135.361 41.3086 135.598 41.4508C136.084 41.7233 136.552 42.0432 137.038 42.2683C138.968 43.2232 141.02 43.9361 143.143 44.3891C143.66 44.4957 144.184 44.549 144.702 44.632L145.469 44.7445C145.731 44.7445 145.986 44.7445 146.242 44.7919L147.801 44.8808C148.306 44.8808 148.811 44.8393 149.31 44.8275C150.292 44.7831 151.269 44.6742 152.234 44.5016C155.464 43.9258 158.529 42.7057 161.226 40.9217C163.923 39.1377 166.191 36.8304 167.88 34.1523C169.037 32.3326 169.899 30.3574 170.436 28.2935C170.656 27.5453 170.818 26.7831 170.923 26.0127C170.973 25.681 171.035 25.3729 171.066 25.0886C171.097 24.8042 171.104 24.5495 171.116 24.3184C171.149 23.8603 171.174 23.5108 171.191 23.2699C171.191 23.0329 171.228 22.9085 171.228 22.9085C171.228 22.9085 171.228 23.0329 171.228 23.2699C171.228 23.5069 171.228 23.8623 171.191 24.3184C171.191 24.5554 171.191 24.8101 171.154 25.1004C171.116 25.3907 171.073 25.6928 171.023 26.0246C170.927 26.7905 170.772 27.5487 170.561 28.2935C170.033 30.3798 169.173 32.3774 168.011 34.2175C166.321 36.9325 164.043 39.2748 161.327 41.0888C158.611 42.9028 155.52 44.147 152.259 44.7386C151.283 44.9128 150.296 45.0237 149.304 45.0703C148.799 45.0703 148.287 45.1355 147.776 45.1296L146.223 45.0585C145.961 45.0585 145.699 45.0585 145.438 45.0111L144.683 44.8808C144.159 44.7978 143.629 44.7445 143.105 44.6379C142.047 44.4176 141.005 44.1286 139.988 43.773C138.938 43.4171 137.915 42.9936 136.926 42.5052C136.433 42.2505 135.953 41.9543 135.467 41.6759C135.223 41.5278 134.968 41.4034 134.737 41.2434L134.051 40.7517C133.115 40.0928 132.226 39.3765 131.389 38.6072C130.56 37.7971 129.792 36.9341 129.088 36.0243L128.545 35.3431L128.071 34.6085L127.603 33.868C127.434 33.6273 127.286 33.3736 127.161 33.1097C126.899 32.5884 126.631 32.0671 126.369 31.5398L125.745 29.887C124.977 27.6152 124.569 25.2472 124.535 22.8611C124.555 20.483 124.948 18.1208 125.702 15.853L126.325 14.2061L127.123 12.6303C127.248 12.3672 127.394 12.1136 127.56 11.872L128.034 11.1375L128.501 10.4029L129.044 9.7157C129.75 8.80906 130.518 7.94816 131.345 7.13875C132.182 6.36949 133.072 5.65312 134.008 4.99424L134.693 4.50255C134.924 4.3426 135.18 4.2182 135.423 4.0701C135.909 3.79759 136.39 3.47769 136.882 3.24665C138.838 2.28354 140.918 1.56472 143.068 1.10808C143.592 1.00737 144.122 0.948129 144.646 0.865192L145.425 0.752634C145.687 0.752634 145.949 0.752635 146.211 0.705243L147.763 0.634155C148.275 0.634155 148.78 0.675623 149.285 0.693395C150.279 0.742674 151.268 0.853492 152.247 1.02514C155.508 1.61677 158.599 2.86092 161.315 4.67492C164.031 6.48893 166.309 8.83124 167.998 11.5462C169.16 13.3863 170.02 15.384 170.549 17.4703C170.759 18.2249 170.911 18.9931 171.004 19.7688C171.054 20.1065 171.11 20.4145 171.135 20.6989L171.172 21.4749C171.172 21.9311 171.203 22.2806 171.21 22.5294C171.216 22.7782 171.228 22.8848 171.228 22.8848Z" fill="#263238"/>
<path d="M158.981 22.2626C158.677 22.3691 158.364 22.4543 158.046 22.5174L155.446 23.1098C153.245 23.5955 150.189 24.2531 146.772 24.964L146.579 25.0055V24.1465C146.579 20.6809 146.579 17.5412 146.622 15.2604C146.622 14.1704 146.666 13.264 146.678 12.5709C146.669 12.242 146.69 11.913 146.741 11.5875C146.788 11.9134 146.808 12.2421 146.803 12.5709C146.803 13.264 146.834 14.1704 146.853 15.2604C146.853 17.5353 146.903 20.675 146.903 24.1465V24.7922L146.703 24.6382C150.121 23.9332 153.182 23.3112 155.396 22.861L158.015 22.3693C158.333 22.3054 158.657 22.2697 158.981 22.2626Z" fill="#263238"/>
<path d="M172.893 32.0078C172.916 31.8843 172.951 31.7632 172.999 31.6464C173.068 31.4154 173.211 31.054 173.336 30.6394C173.737 29.3965 174.042 28.1273 174.247 26.842C174.959 22.5952 174.533 18.2462 173.007 14.1974C171.481 10.1486 168.905 6.53094 165.517 3.67907C164.501 2.81643 163.422 2.02451 162.286 1.30945C161.887 1.04287 161.557 0.865151 161.351 0.71705C161.237 0.654507 161.129 0.583179 161.027 0.503784C161.153 0.539626 161.273 0.593563 161.382 0.663733C161.601 0.782214 161.944 0.942162 162.355 1.1969C163.527 1.88188 164.637 2.65865 165.672 3.51912C169.133 6.36345 171.76 10.0098 173.298 14.1038C174.837 18.1979 175.234 22.6004 174.452 26.8835C174.231 28.167 173.9 29.4311 173.461 30.663C173.311 31.1014 173.149 31.4332 173.062 31.6583C173.02 31.7805 172.963 31.8978 172.893 32.0078Z" fill="#263238"/>
<path d="M177.358 21.1194C177.308 21.1194 177.277 20.2368 177.09 18.8268C176.84 16.9935 176.402 15.1879 175.78 13.436C175.154 11.6914 174.345 10.0105 173.367 8.41832C172.606 7.19204 172.058 6.48116 172.12 6.45154C172.288 6.58499 172.435 6.74059 172.557 6.91361C172.812 7.23351 173.18 7.70151 173.579 8.29984C174.64 9.87519 175.499 11.5657 176.136 13.3353C176.778 15.1046 177.197 16.9401 177.383 18.8032C177.452 19.514 177.47 20.0946 177.47 20.4974C177.467 20.7091 177.43 20.919 177.358 21.1194Z" fill="#263238"/>
<path d="M124.685 10.071C124.648 10.1892 124.596 10.3027 124.529 10.4087C124.417 10.6279 124.224 10.936 124.024 11.3566C121.676 15.7885 120.728 20.7715 121.296 25.7038C121.864 30.6362 123.922 35.3069 127.223 39.1521C128.082 40.1616 129.016 41.1118 130.017 41.9957C130.366 42.3156 130.64 42.5407 130.846 42.7066C130.946 42.7867 131.04 42.8739 131.127 42.9672C131.01 42.9092 130.901 42.8376 130.802 42.7539C130.603 42.6058 130.297 42.3926 129.936 42.0845C128.894 41.2293 127.928 40.2941 127.048 39.2884C124.106 35.9585 122.121 31.9614 121.287 27.6862C120.453 23.4111 120.799 19.0037 122.291 14.8932C122.73 13.655 123.279 12.4541 123.931 11.3032C124.149 10.8886 124.361 10.5864 124.486 10.3791C124.543 10.2713 124.61 10.1683 124.685 10.071Z" fill="#263238"/>
<path d="M118.456 20.1478C118.512 20.1478 118.393 21.0305 118.343 22.4523C118.277 24.2986 118.409 26.1465 118.736 27.9676C119.07 29.7904 119.597 31.5766 120.308 33.2992C120.85 34.6202 121.274 35.4081 121.224 35.4318C121.084 35.2715 120.967 35.0942 120.875 34.9046C120.669 34.5551 120.395 34.0397 120.096 33.3821C119.313 31.675 118.748 29.8851 118.412 28.0505C118.081 26.2081 117.98 24.3349 118.113 22.47C118.169 21.7532 118.244 21.1786 118.312 20.7817C118.33 20.5652 118.378 20.352 118.456 20.1478Z" fill="#263238"/>
<path d="M167.219 26.5162C166.34 26.3444 165.629 26.1963 165.629 26.1904C165.629 26.1845 166.346 26.3148 167.225 26.4866C168.104 26.6584 168.815 26.8006 168.809 26.8065C168.803 26.8124 168.092 26.7117 167.219 26.5162Z" fill="#263238"/>
<path d="M164.961 32.1143C164.188 31.6819 163.565 31.3264 163.565 31.3205C163.565 31.3146 164.188 31.6582 164.974 32.0906C165.76 32.5231 166.371 32.8785 166.365 32.8845C166.358 32.8904 165.728 32.5468 164.961 32.1143Z" fill="#263238"/>
<path d="M160.896 36.6877C160.31 36.0361 159.842 35.5029 159.848 35.5029C159.854 35.5029 160.335 36.0183 160.915 36.6877C161.494 37.3572 161.968 37.8725 161.956 37.8725C161.943 37.8725 161.519 37.3335 160.896 36.6877Z" fill="#263238"/>
<path d="M155.527 39.7682C155.196 38.9743 154.935 38.3286 154.941 38.3286C154.947 38.3286 155.221 38.9625 155.564 39.7563C155.907 40.5501 156.157 41.1899 156.144 41.1958C156.132 41.2018 155.857 40.5561 155.527 39.7682Z" fill="#263238"/>
<path d="M149.379 41.0182C149.341 40.1651 149.316 39.4779 149.322 39.4779C149.329 39.4779 149.372 40.1651 149.41 41.0182C149.447 41.8712 149.478 42.5584 149.472 42.5584C149.466 42.5584 149.422 41.8712 149.379 41.0182Z" fill="#263238"/>
<path d="M143.137 40.3014C143.386 39.4839 143.592 38.8263 143.604 38.8263C143.617 38.8263 143.417 39.4957 143.168 40.3132C142.918 41.1307 142.706 41.7883 142.694 41.7883C142.681 41.7883 142.881 41.1189 143.137 40.3014Z" fill="#263238"/>
<path d="M137.468 37.7067C137.986 37.0076 138.41 36.4508 138.422 36.4567C138.435 36.4626 138.011 37.0491 137.493 37.7245C136.976 38.3998 136.577 38.9567 136.577 38.9567C136.577 38.9567 136.951 38.3998 137.468 37.7067Z" fill="#263238"/>
<path d="M133.01 33.5007C133.733 32.9971 134.326 32.6002 134.332 32.6061C134.338 32.6121 133.752 33.0208 133.022 33.5244C132.293 34.0279 131.707 34.4189 131.7 34.413C131.694 34.4071 132.28 33.9983 133.01 33.5007Z" fill="#263238"/>
<path d="M130.216 28.1453C131.077 27.8965 131.775 27.701 131.775 27.7069C131.775 27.7128 131.083 27.9261 130.222 28.1749C129.362 28.4237 128.67 28.6133 128.67 28.6074C128.67 28.6014 129.362 28.3941 130.216 28.1453Z" fill="#263238"/>
<path d="M129.412 22.221C130.31 22.221 131.033 22.2799 131.033 22.2917C131.033 22.3035 130.303 22.2917 129.412 22.2505C128.52 22.2092 127.784 22.1857 127.791 22.1798C127.797 22.1739 128.514 22.1857 129.412 22.221Z" fill="#263238"/>
<path d="M130.671 16.3624C131.513 16.6704 132.187 16.9192 132.187 16.9548C132.187 16.9903 131.501 16.7178 130.659 16.4157C129.817 16.1136 129.15 15.8588 129.15 15.8529C129.15 15.847 129.836 16.0602 130.671 16.3624Z" fill="#263238"/>
<path d="M133.87 11.2145C134.556 11.7654 135.117 12.2156 135.117 12.2215C135.117 12.2275 134.55 11.7891 133.87 11.2382C133.191 10.6872 132.623 10.2429 132.623 10.237C132.623 10.2311 133.178 10.6695 133.87 11.2145Z" fill="#263238"/>
<path d="M138.647 7.34008C139.108 8.06874 139.482 8.66114 139.476 8.66707C139.47 8.67299 139.083 8.07466 138.622 7.35193C138.16 6.6292 137.786 6.03087 137.793 6.02495C137.799 6.01902 138.185 6.61143 138.647 7.34008Z" fill="#263238"/>
<path d="M144.49 5.13634C144.677 5.97162 144.826 6.64696 144.82 6.64696C144.814 6.64696 144.652 5.97755 144.459 5.14226C144.265 4.30697 144.122 3.63755 144.134 3.63163C144.147 3.62571 144.303 4.30697 144.49 5.13634Z" fill="#263238"/>
<path d="M150.769 4.86379C150.663 5.71093 150.57 6.39219 150.563 6.39219C150.557 6.39219 150.632 5.705 150.744 4.85787C150.856 4.01073 150.944 3.32947 150.95 3.32947C150.956 3.32947 150.881 4.00481 150.769 4.86379Z" fill="#263238"/>
<path d="M156.812 6.54033C156.425 7.30453 156.101 7.92655 156.094 7.92063C156.088 7.9147 156.394 7.29268 156.78 6.52256C157.167 5.75243 157.491 5.13633 157.504 5.14225C157.516 5.14818 157.198 5.78205 156.812 6.54033Z" fill="#263238"/>
<path d="M161.943 9.9881C161.32 10.5805 160.796 11.0781 160.79 11.0722C160.784 11.0663 161.295 10.5687 161.925 9.9644C162.555 9.36015 163.072 8.87438 163.078 8.8803C163.085 8.88623 162.579 9.38385 161.943 9.9881Z" fill="#263238"/>
<path d="M165.623 14.828C164.818 15.2072 164.163 15.5093 164.163 15.5034C164.163 15.4974 164.787 15.1835 165.61 14.8043C166.433 14.4252 167.069 14.1231 167.069 14.129C167.069 14.1349 166.427 14.4489 165.623 14.828Z" fill="#263238"/>
<path d="M167.456 20.5448L165.841 20.7284C165.841 20.7284 166.558 20.6218 167.45 20.5152C168.341 20.4085 169.058 20.3197 169.058 20.3256C169.058 20.3315 168.341 20.4322 167.456 20.5448Z" fill="#263238"/>
<path d="M178.979 18.501C178.633 19.5013 178.187 20.4674 177.645 21.386L177.608 21.4511L177.483 21.694L177.327 21.4689C176.7 20.637 176.161 19.748 175.718 18.8149C176.437 19.5795 177.076 20.4088 177.626 21.2912H177.346L177.383 21.2201C177.821 20.2668 178.356 19.3561 178.979 18.501Z" fill="#263238"/>
<path d="M189.58 68.5294H116.292C114.57 68.5294 112.919 69.1792 111.702 70.3357C110.484 71.4922 109.8 73.0608 109.8 74.6963C109.8 76.3319 110.484 77.9005 111.702 79.057C112.919 80.2135 114.57 80.8633 116.292 80.8633H150.588L158.264 87.8122V80.8633H189.58C190.433 80.8633 191.277 80.7037 192.064 80.3938C192.852 80.0839 193.567 79.6297 194.17 79.057C194.773 78.4844 195.251 77.8045 195.577 77.0563C195.904 76.3081 196.071 75.5062 196.071 74.6963C196.071 73.8865 195.904 73.0846 195.577 72.3364C195.251 71.5882 194.773 70.9083 194.17 70.3357C193.567 69.763 192.852 69.3088 192.064 68.9989C191.277 68.6889 190.433 68.5294 189.58 68.5294Z" fill="#FAFAFA"/>
<path d="M189.58 68.5294H189.817C190.055 68.5317 190.293 68.5495 190.528 68.5827C191.454 68.7007 192.342 69.01 193.128 69.4891C193.881 69.9442 194.527 70.5408 195.027 71.2421C195.528 71.9435 195.872 72.7348 196.039 73.5672C196.205 74.3997 196.19 75.2557 195.996 76.0825C195.801 76.9094 195.43 77.6896 194.905 78.3752C194.197 79.3123 193.23 80.046 192.112 80.496C191.512 80.7264 190.883 80.8798 190.241 80.9521C189.574 80.9995 188.913 80.9817 188.227 80.9877H179.397H158.252L158.395 80.8514C158.395 83.0315 158.395 85.3892 158.395 87.8003V88.1261L158.146 87.901L150.464 80.9521L150.57 80.9936H121.424H116.336C114.637 81.0104 112.996 80.4088 111.75 79.3123C110.503 78.2157 109.746 76.7075 109.634 75.0972C109.521 73.4869 110.062 71.8968 111.145 70.6534C112.227 69.41 113.77 68.6076 115.456 68.4109C116.267 68.328 117.046 68.3695 117.832 68.3576H129.243L160.646 68.3932L181.848 68.4406L187.603 68.4702H189.1C189.437 68.4702 189.611 68.4702 189.611 68.4702H189.1H187.603L181.848 68.4998L160.646 68.5531H129.243H117.832C117.053 68.5531 116.254 68.5531 115.5 68.6064C113.938 68.7909 112.505 69.5242 111.484 70.6621C110.698 71.5389 110.192 72.6117 110.029 73.7531C109.865 74.8946 110.049 76.0567 110.56 77.1015C111.071 78.1463 111.887 79.0299 112.91 79.6474C113.934 80.2648 115.123 80.5902 116.336 80.5848H121.424H150.57H150.632L150.676 80.6204L158.352 87.5752L158.102 87.6759C158.102 85.2648 158.102 82.907 158.102 80.727V80.5967H158.239H179.385H188.214C188.894 80.5967 189.568 80.5967 190.21 80.5967C190.837 80.5305 191.451 80.3851 192.037 80.1642C193.33 79.6474 194.41 78.7438 195.112 77.5908C195.815 76.4377 196.103 75.0983 195.931 73.7758C195.76 72.4534 195.139 71.2203 194.163 70.2637C193.186 69.3072 191.908 68.6795 190.522 68.4761C189.904 68.5353 189.58 68.5768 189.58 68.5294Z" fill="#263238"/>
<path d="M148.343 79.0564H116.248C115.645 79.0572 115.048 78.9449 114.491 78.7261C113.934 78.5073 113.427 78.1861 113.001 77.7811C112.575 77.3761 112.237 76.8951 112.006 76.3658C111.776 75.8364 111.658 75.2691 111.659 74.6963C111.662 73.5426 112.147 72.4372 113.008 71.623C113.868 70.8089 115.034 70.3524 116.248 70.354H148.343C148.946 70.3532 149.542 70.4653 150.099 70.6837C150.656 70.9022 151.162 71.2228 151.588 71.6272C152.015 72.0316 152.353 72.5119 152.583 73.0405C152.814 73.5692 152.933 74.1359 152.933 74.7082C152.932 75.28 152.813 75.846 152.582 76.374C152.351 76.902 152.012 77.3815 151.586 77.7853C151.16 78.1891 150.654 78.5091 150.098 78.7272C149.541 78.9453 148.945 79.0572 148.343 79.0564Z" fill="#FED36A"/>
<path d="M151.031 62.173L149.946 65.3246H149.123L148.393 63.1919L147.639 65.3246H146.822L145.731 62.173H146.554L147.302 64.3886L148.081 62.173H148.792L149.553 64.4063L150.32 62.173H151.031Z" fill="#263238"/>
<path d="M151.212 63.7487C151.192 63.4044 151.281 63.0622 151.468 62.7666C151.655 62.4709 151.931 62.2352 152.26 62.0901C152.589 61.945 152.957 61.897 153.315 61.9525C153.674 62.0079 154.006 62.1641 154.27 62.401C154.534 62.6379 154.717 62.9445 154.795 63.2812C154.874 63.618 154.844 63.9693 154.71 64.2899C154.576 64.6104 154.344 64.8855 154.044 65.0794C153.744 65.2734 153.389 65.3773 153.026 65.3778C152.793 65.3908 152.559 65.3582 152.34 65.2821C152.12 65.2061 151.919 65.0881 151.749 64.9355C151.579 64.783 151.444 64.599 151.351 64.3949C151.259 64.1908 151.211 63.9709 151.212 63.7487ZM154.062 63.7487C154.057 63.5553 153.992 63.3676 153.875 63.209C153.758 63.0504 153.595 62.9281 153.406 62.8573C153.216 62.7865 153.009 62.7703 152.81 62.8109C152.611 62.8515 152.428 62.947 152.286 63.0854C152.144 63.2238 152.048 63.399 152.01 63.5891C151.972 63.7792 151.994 63.9757 152.073 64.154C152.152 64.3323 152.284 64.4845 152.454 64.5916C152.624 64.6986 152.823 64.7558 153.026 64.7558C153.163 64.756 153.299 64.7297 153.425 64.6785C153.551 64.6273 153.664 64.5524 153.759 64.4582C153.853 64.364 153.927 64.2525 153.975 64.1306C154.022 64.0086 154.043 63.8787 154.037 63.7487H154.062Z" fill="#263238"/>
<path d="M157.535 65.3246L156.911 64.4478H156.207V65.3246H155.44V62.173H156.874C157.759 62.173 158.314 62.6113 158.314 63.3163C158.324 63.5295 158.263 63.7403 158.14 63.9189C158.017 64.0975 157.838 64.2348 157.628 64.3116L158.377 65.3246H157.535ZM156.811 62.7654H156.188V63.8672H156.811C157.279 63.8672 157.516 63.6599 157.516 63.3163C157.516 62.9727 157.279 62.7654 156.811 62.7654Z" fill="#263238"/>
<path d="M160.11 64.0864L159.661 64.5248V65.3246H158.9V62.173H159.649V63.6421L161.12 62.173H161.975L160.597 63.577L162.056 65.3246H161.158L160.11 64.0864Z" fill="#263238"/>
<path d="M181.174 75.8516H180.227L179.996 76.989H179.322L179.566 75.8516H176.872L176.959 75.3955L180.04 72.3801H180.85L177.901 75.2888H179.728L179.94 74.2877H180.563L180.351 75.2888H181.274L181.174 75.8516Z" fill="#263238"/>
<path d="M183.17 72.9547L182.771 74.2165H183.238C184.486 74.2165 185.041 74.7023 185.041 75.4487C185.041 76.4025 184.217 77.0364 182.977 77.0364C182.666 77.0536 182.355 77.0099 182.064 76.9079C181.772 76.806 181.505 76.6481 181.28 76.444L181.648 75.9345C181.828 76.1055 182.044 76.2387 182.281 76.3254C182.518 76.4122 182.772 76.4506 183.026 76.438C183.862 76.438 184.348 76.0885 184.348 75.502C184.348 75.0459 184.005 74.7734 183.101 74.7734H181.929L182.683 72.3623H185.415L185.302 72.9547H183.17Z" fill="#263238"/>
<path d="M185.839 73.8493C185.818 73.667 185.836 73.4826 185.893 73.3072C185.949 73.1318 186.042 72.969 186.166 72.8285C186.29 72.688 186.442 72.5727 186.614 72.4895C186.786 72.4064 186.974 72.3571 187.167 72.3446C187.303 72.3394 187.439 72.3623 187.565 72.4119C187.691 72.4615 187.804 72.5365 187.897 72.6317C187.989 72.7269 188.059 72.84 188.101 72.9633C188.143 73.0866 188.156 73.2171 188.14 73.3458C188.161 73.5278 188.144 73.712 188.088 73.8874C188.033 74.0628 187.94 74.2257 187.817 74.3663C187.693 74.5069 187.541 74.6223 187.369 74.7055C187.198 74.7887 187.01 74.838 186.818 74.8505C186.681 74.8556 186.545 74.8326 186.419 74.783C186.293 74.7335 186.179 74.6587 186.086 74.5636C185.993 74.4685 185.923 74.3554 185.88 74.2321C185.837 74.1089 185.823 73.9783 185.839 73.8493ZM190.141 72.3801H190.696L186.462 76.989H185.895L190.141 72.3801ZM187.709 73.3813C187.709 72.9429 187.497 72.7178 187.148 72.7178C186.587 72.7178 186.313 73.3102 186.313 73.8138C186.313 74.3173 186.525 74.4773 186.874 74.4773C187.429 74.501 187.709 73.9085 187.709 73.3813ZM188.476 76.0234C188.455 75.8413 188.473 75.6569 188.529 75.4814C188.584 75.306 188.677 75.1432 188.802 75.003C188.926 74.8628 189.079 74.7481 189.251 74.6658C189.424 74.5836 189.612 74.5356 189.805 74.5246C189.941 74.5193 190.076 74.5422 190.202 74.5918C190.328 74.6414 190.441 74.7165 190.533 74.8119C190.625 74.9072 190.694 75.0205 190.735 75.1438C190.776 75.2671 190.788 75.3975 190.771 75.5258C190.793 75.7075 190.775 75.8914 190.719 76.0665C190.664 76.2415 190.572 76.404 190.448 76.5442C190.324 76.6843 190.172 76.7991 190 76.8817C189.829 76.9643 189.641 77.0129 189.449 77.0246C189.312 77.0317 189.175 77.0102 189.048 76.9613C188.92 76.9125 188.806 76.8377 188.712 76.7421C188.619 76.6466 188.549 76.5326 188.507 76.4084C188.465 76.2842 188.453 76.1528 188.47 76.0234H188.476ZM190.347 75.5554C190.347 75.123 190.129 74.8919 189.786 74.8919C189.231 74.8919 188.944 75.4843 188.944 75.9938C188.944 76.5033 189.169 76.6573 189.505 76.6573C190.035 76.6573 190.316 76.059 190.316 75.5554H190.347Z" fill="#263238"/>
<g opacity="0.3">
<path d="M117.489 70.3422L114.515 79.0564H117.489L120.283 70.3422H117.489Z" fill="white"/>
</g>
<g opacity="0.3">
<path d="M124.835 70.3422L121.86 79.0564H124.835L127.628 70.3422H124.835Z" fill="white"/>
</g>
<g opacity="0.3">
<path d="M132.174 70.3422L129.206 79.0564H132.174L134.974 70.3422H132.174Z" fill="white"/>
</g>
<g opacity="0.3">
<path d="M139.52 70.3422L136.552 79.0564H139.52L142.32 70.3422H139.52Z" fill="white"/>
</g>
<g opacity="0.3">
<path d="M146.866 70.3422L143.891 79.0564H146.866L149.665 70.3422H146.866Z" fill="white"/>
</g>
<path d="M35.5582 193.681C35.5582 193.681 51.3532 200.44 67.803 200.44C83.0306 200.44 99.1499 193.159 99.1499 193.159L35.5582 193.681Z" fill="#3A3E47"/>
<path d="M69.5179 193.811H62.9953V258.721H69.5179V193.811Z" fill="#3A3E47"/>
<path d="M95.1965 254.911H37.3042V258.715H95.1965V254.911Z" fill="#3A3E47"/>
<path d="M44.388 259.965C44.3904 260.796 44.1331 261.61 43.6485 262.302C43.1639 262.994 42.474 263.535 41.666 263.854C40.858 264.174 39.9683 264.258 39.1097 264.097C38.2511 263.936 37.4622 263.536 36.8429 262.949C36.2236 262.361 35.8018 261.612 35.6309 260.797C35.46 259.981 35.5477 259.136 35.8829 258.368C36.2181 257.6 36.7857 256.943 37.5139 256.482C38.242 256.021 39.0979 255.775 39.9731 255.776C41.1424 255.778 42.2635 256.22 43.0909 257.004C43.9183 257.789 44.3847 258.854 44.388 259.965Z" fill="#263238"/>
<path d="M70.1164 259.965C70.1164 260.795 69.8571 261.607 69.3713 262.298C68.8855 262.989 68.1951 263.527 67.3872 263.845C66.5794 264.163 65.6904 264.246 64.8328 264.084C63.9752 263.922 63.1874 263.522 62.5691 262.935C61.9508 262.347 61.5297 261.599 61.3592 260.784C61.1886 259.969 61.2761 259.125 61.6107 258.357C61.9454 257.59 62.512 256.934 63.2391 256.472C63.9661 256.011 64.8209 255.765 65.6953 255.765C66.8679 255.765 67.9924 256.207 68.8215 256.995C69.6506 257.782 70.1164 258.851 70.1164 259.965Z" fill="#263238"/>
<path d="M99.9169 259.965C99.9169 260.795 99.6576 261.607 99.1718 262.298C98.686 262.989 97.9955 263.527 97.1877 263.845C96.3798 264.163 95.4909 264.246 94.6333 264.084C93.7757 263.922 92.9879 263.522 92.3696 262.935C91.7513 262.347 91.3302 261.599 91.1596 260.784C90.989 259.969 91.0766 259.125 91.4112 258.357C91.7458 257.59 92.3125 256.934 93.0396 256.472C93.7666 256.011 94.6214 255.765 95.4958 255.765C96.6683 255.765 97.7929 256.207 98.622 256.995C99.4511 257.782 99.9169 258.851 99.9169 259.965Z" fill="#263238"/>
<path d="M67.7967 217.169H58.9233V220.659H67.7967V217.169Z" fill="#3A3E47"/>
<path d="M60.5384 214.729H57.3083V223.099H60.5384V214.729Z" fill="#3A3E47"/>
<path d="M34.0117 94.8855H60.501V185.423H26.7783V101.751C26.7816 99.9304 27.545 98.185 28.9009 96.8979C30.2569 95.6108 32.0949 94.8871 34.0117 94.8855Z" fill="#455A64"/>
<path d="M34.2362 184.048C34.1489 184.048 34.0741 164.404 34.0741 140.175C34.0741 115.945 34.1489 96.2954 34.2362 96.2954C34.3235 96.2954 34.3983 115.94 34.3983 140.175C34.3983 164.41 34.311 184.048 34.2362 184.048Z" fill="#263238"/>
<path d="M26.7783 185.239H110.218V195.085H31.7357C30.4126 195.085 29.1438 194.585 28.2082 193.697C27.2727 192.808 26.7471 191.602 26.7471 190.345V185.215L26.7783 185.239Z" fill="#455A64"/>
<path d="M74.0075 59.0985L70.3908 91.8524C69.7673 97.427 70.0728 105.727 79.389 106.248C87.4954 106.123 90.3388 99.0798 90.9063 93.8844C91.1807 91.4141 91.4052 89.3584 91.455 89.1096C91.455 89.1096 100.316 89.1985 101.862 81.0055C102.611 77.0483 103.446 68.7783 104.114 61.2903C104.459 57.4099 103.253 53.5483 100.736 50.4744C98.2192 47.4006 94.5761 45.34 90.5322 44.7031L89.6966 44.5668C80.6236 43.6308 74.7246 50.4375 74.0075 59.0985Z" fill="#FFBE9D"/>
<path d="M91.455 89.0918C87.466 88.4513 83.7543 86.7365 80.7608 84.1511C80.7608 84.1511 82.4507 90.5787 91.1994 91.2067L91.455 89.0918Z" fill="#EB996E"/>
<path d="M88.9296 63.3519C88.7425 63.5 87.8134 62.6469 86.3605 62.4811C84.9076 62.3152 83.754 62.9017 83.6168 62.7121C83.5482 62.6232 83.7602 62.333 84.2403 62.0604C84.9173 61.7079 85.6947 61.569 86.4602 61.6635C87.218 61.7539 87.9257 62.0714 88.4806 62.5699C88.9109 62.955 89.0231 63.2808 88.9296 63.3519Z" fill="#263238"/>
<path d="M88.7861 66.5213C88.7383 66.8109 88.5734 67.0714 88.3265 67.2473C88.0797 67.4232 87.7703 67.5007 87.4642 67.4632C87.3143 67.4506 87.1686 67.4098 87.0355 67.3432C86.9023 67.2766 86.7845 67.1856 86.6887 67.0753C86.593 66.9651 86.5213 66.8379 86.4778 66.701C86.4343 66.5642 86.4198 66.4205 86.4353 66.2784C86.4846 65.9894 86.6498 65.7298 86.8964 65.5542C87.1429 65.3785 87.4515 65.3005 87.7573 65.3365C87.9071 65.349 88.0528 65.3898 88.186 65.4564C88.3191 65.523 88.437 65.6141 88.5327 65.7243C88.6284 65.8346 88.7001 65.9618 88.7437 66.0986C88.7872 66.2354 88.8016 66.3791 88.7861 66.5213Z" fill="#263238"/>
<path d="M91.6421 73.3162C92.378 73.2199 93.1235 73.21 93.862 73.2865C94.205 73.2865 94.5417 73.2865 94.6352 73.0851C94.7204 72.755 94.6986 72.4081 94.5729 72.0899L94.0054 69.4833C93.2197 65.7689 92.7146 62.7418 92.8768 62.7121C93.0389 62.6825 93.7934 65.6741 94.5729 69.3767C94.7599 70.2949 94.9345 71.1539 95.1029 72.001C95.2476 72.4235 95.2299 72.8811 95.053 73.2925C94.9864 73.3966 94.8955 73.4849 94.7875 73.5506C94.6794 73.6164 94.5569 73.6577 94.4295 73.6716C94.2328 73.696 94.0337 73.696 93.8371 73.6716C93.0928 73.639 92.3557 73.5196 91.6421 73.3162Z" fill="#263238"/>
<path d="M88.8174 58.0973C88.6428 58.3935 87.5016 58.0558 86.0986 58.0025C84.6956 57.9492 83.5232 58.1387 83.3861 57.8307C83.3299 57.6826 83.5731 57.4219 84.0782 57.1909C84.7335 56.9045 85.4537 56.7782 86.1734 56.8236C86.8939 56.8596 87.5941 57.063 88.2125 57.416C88.6802 57.6707 88.8922 57.9551 88.8174 58.0973Z" fill="#263238"/>
<path d="M102.392 61.8709C102.218 62.1078 101.108 61.7287 99.7361 61.5687C98.3642 61.4088 97.2044 61.474 97.0797 61.2015C97.0298 61.0711 97.2792 60.8697 97.7781 60.7098C98.4497 60.5232 99.1554 60.4748 99.8483 60.5676C100.547 60.6529 101.221 60.8747 101.825 61.2192C102.28 61.4977 102.474 61.7583 102.392 61.8709Z" fill="#263238"/>
<path d="M73.6459 65.2713C73.5087 65.1824 68.0025 62.6647 67.2106 68.3044C66.4187 73.944 72.5421 73.5353 72.5733 73.3753C72.6045 73.2154 73.6459 65.2713 73.6459 65.2713Z" fill="#FFBE9D"/>
<path d="M71.0643 71.0115C71.0643 71.0115 70.9458 71.0649 70.765 71.1182C70.5036 71.1868 70.2244 71.1571 69.9855 71.0352C69.3619 70.739 68.994 69.726 69.1125 68.7071C69.1639 68.2201 69.3301 67.7503 69.5989 67.3327C69.6789 67.1634 69.8015 67.0155 69.9559 66.9018C70.1104 66.7882 70.2918 66.7124 70.4843 66.6811C70.6063 66.6659 70.7301 66.692 70.8338 66.7549C70.9376 66.8177 71.0147 66.9132 71.0518 67.0247C71.1141 67.1905 71.0518 67.3031 71.0892 67.3149C71.1266 67.3268 71.2326 67.2379 71.2139 66.9951C71.2039 66.8521 71.1397 66.7174 71.0331 66.6159C70.8852 66.4769 70.6861 66.3983 70.4781 66.3967C70.2278 66.413 69.986 66.4895 69.7755 66.619C69.5649 66.7486 69.3926 66.9269 69.2746 67.1372C68.9524 67.5917 68.7532 68.1146 68.6947 68.6597C68.5762 69.803 69.0377 70.9464 69.8608 71.29C70.0139 71.3542 70.1803 71.3849 70.3476 71.3798C70.5149 71.3746 70.6788 71.3338 70.8273 71.2604C71.0331 71.1478 71.1017 71.0234 71.0643 71.0115Z" fill="#EB996E"/>
<path d="M89.8524 77.0897C89.9335 76.9534 88.7986 76.4973 88.0753 75.4013C87.7796 74.9159 87.5512 74.3962 87.3956 73.8552C87.2646 73.4286 87.1586 73.1561 87.09 73.168C87.0214 73.1798 87.0152 73.4642 87.09 73.9203C87.1641 74.5311 87.3769 75.1192 87.7136 75.6442C88.0561 76.1731 88.546 76.6016 89.1291 76.8823C89.5282 77.0956 89.8088 77.1371 89.8524 77.0897Z" fill="#263238"/>
<path d="M66.612 55.4078C68.0524 53.518 68.57 51.1602 69.4679 48.992C70.3659 46.8238 71.8936 44.6319 74.2694 44.0514L74.3193 44.081C76.4582 43.4886 79.0023 43.6841 80.555 45.1947C81.2597 42.286 84.2029 40.1948 87.302 39.7091C90.4012 39.2233 95.2027 40.0941 97.9963 41.4863C100.154 42.5408 102.149 44.4838 104.531 47.2978C105.541 48.4807 106.446 49.7408 107.238 51.0654L109.108 59.0096L106.464 62.8543C106.304 63.1232 106.129 63.3842 105.941 63.6362L103.085 71.9832C103.178 69.6491 104.145 61.5806 104.238 59.2406C102.403 59.0273 100.633 58.464 99.0332 57.5844C97.4334 56.7049 96.0371 55.5272 94.9283 54.1222C93.7311 52.5998 92.8518 50.7455 91.1432 49.7503C88.9483 48.4648 86.1547 49.0098 83.6168 49.6022L83.729 49.5193C82.4071 49.9661 81.1878 50.6499 80.1372 51.5334C80.2346 56.1686 79.2797 60.7694 77.3374 65.0225C77.0443 65.6623 76.296 66.9656 75.5852 67.161C74.2008 67.5343 73.9639 66.2073 73.2281 65.449C72.6856 64.8921 71.8126 64.744 70.846 64.667C70.3687 62.6823 70.0147 60.6725 69.786 58.6482C68.9604 58.8098 68.1066 58.7875 67.2917 58.583L68.2333 56.9006C67.8924 57.0959 67.5121 57.2211 67.1171 57.2679C66.911 57.2925 66.702 57.2533 66.5212 57.1562C66.3404 57.0591 66.1973 56.9092 66.1131 56.7288C65.9572 56.2727 66.3127 55.8047 66.612 55.4078Z" fill="#263238"/>
<path d="M83.2114 46.3795C82.8791 46.5852 82.5623 46.8129 82.2636 47.0608C81.5009 47.7893 80.9508 48.6936 80.6673 49.6851C80.4505 50.3627 80.3064 51.0594 80.237 51.7645C80.1622 52.5287 80.1497 53.3462 80.1248 54.2111C80.1178 55.1186 80.0511 56.0247 79.9252 56.9243C79.8508 57.4012 79.7404 57.8724 79.5947 58.3342C79.4684 58.8316 79.2109 59.2903 78.8464 59.6671C78.6814 59.8117 78.4801 59.9137 78.2618 59.9634C78.0435 60.0132 77.8154 60.0091 77.5993 59.9515C77.1793 59.8397 76.8106 59.5978 76.5517 59.2643C76.1427 58.6057 75.9274 57.8548 75.9281 57.0902L76.1027 57.1257C75.7729 57.7272 75.3528 58.28 74.8556 58.7667C74.3833 59.2161 73.7467 59.475 73.0784 59.4894C72.7693 59.4916 72.4653 59.4138 72.1992 59.2643C71.9532 59.1139 71.76 58.8974 71.6442 58.6423C71.5368 58.4055 71.4981 58.1457 71.532 57.8899C71.5715 57.661 71.6926 57.4518 71.8749 57.2975L71.956 57.3864C71.2383 58.0496 70.3398 58.5092 69.3619 58.7134C69.2933 58.7337 69.2218 58.7437 69.1499 58.743C69.2145 58.7178 69.2813 58.698 69.3495 58.6837C69.4867 58.6423 69.6862 58.589 69.9356 58.4942C70.6567 58.2257 71.314 57.8228 71.8687 57.3094L71.956 57.3982C71.7966 57.5588 71.6936 57.7625 71.6612 57.9811C71.6288 58.1996 71.6686 58.4224 71.7752 58.6186C71.8814 58.8463 72.0574 59.0383 72.2802 59.1695C72.5215 59.3056 72.7979 59.3753 73.0784 59.3709C73.7019 59.3476 74.2927 59.0998 74.7309 58.6778C75.2046 58.1993 75.6036 57.6586 75.9157 57.0724L76.0653 56.8177V57.1079C76.0789 57.8408 76.2939 58.5576 76.6889 59.1873C76.9262 59.4744 77.2539 59.682 77.6242 59.7797C77.8108 59.8314 78.0083 59.8362 78.1974 59.7936C78.3865 59.751 78.5607 59.6625 78.703 59.5368C79.0389 59.1832 79.2768 58.7556 79.3952 58.2928C79.5408 57.839 79.6512 57.3756 79.7257 56.9065C79.8511 56.0148 79.9198 55.1166 79.9315 54.217C79.9315 53.3521 79.9813 52.5346 80.0624 51.7645C80.1409 51.0485 80.2955 50.3419 80.5238 49.6555C80.8275 48.6498 81.4088 47.7396 82.2075 47.0193C82.5018 46.7538 82.8412 46.5375 83.2114 46.3795Z" fill="#455A64"/>
<path d="M109.32 56.7761L109.245 56.8235L109.015 56.9538C108.891 57.0277 108.762 57.0931 108.628 57.1493C108.466 57.2145 108.285 57.3034 108.073 57.3685C106.857 57.7652 105.557 57.871 104.288 57.6766C102.4 57.3907 100.64 56.5925 99.2185 55.3781C97.5098 53.8794 96.1412 52.0651 95.1964 50.0464C94.6602 48.9919 94.2424 47.9197 93.7685 46.9244C93.3421 45.9557 92.7685 45.0516 92.0661 44.2409C91.4401 43.5041 90.6267 42.9312 89.7028 42.5762C89.2854 42.4252 88.8456 42.3373 88.3995 42.3156C87.9804 42.3 87.5609 42.3378 87.1524 42.4281C85.9183 42.7103 84.8423 43.4256 84.1405 44.4304C83.9053 44.8039 83.7149 45.2014 83.5731 45.6152C83.569 45.5877 83.569 45.5598 83.5731 45.5323C83.5731 45.4612 83.6105 45.3842 83.6355 45.2835C83.735 44.9652 83.8775 44.6606 84.0595 44.3771C84.3496 43.9261 84.7187 43.5254 85.1507 43.1923C85.7232 42.7536 86.3891 42.4382 87.1025 42.2682C87.9726 42.055 88.8904 42.0984 89.734 42.3926C90.6863 42.755 91.5271 43.3397 92.1784 44.0928C92.8935 44.9145 93.4795 45.8304 93.9181 46.8119C94.3983 47.819 94.8161 48.8853 95.3461 49.9339C96.2844 51.9269 97.6328 53.7215 99.312 55.2122C100.709 56.4157 102.441 57.2133 104.301 57.5107C105.551 57.7162 106.834 57.6308 108.042 57.2619C108.89 57.019 109.308 56.7287 109.32 56.7761Z" fill="#455A64"/>
<path d="M102.149 65.0224C101.962 65.1764 101.033 64.3174 99.5802 64.1575C98.1273 63.9975 96.9737 64.5721 96.8427 64.3826C96.7741 64.2937 96.9799 64.0094 97.4663 63.7309C98.1443 63.3812 98.9213 63.2444 99.6862 63.3399C100.444 63.4246 101.153 63.7405 101.707 64.2404C102.131 64.6373 102.243 64.969 102.149 65.0224Z" fill="#263238"/>
<path d="M100.915 67.5935C100.868 67.8838 100.704 68.1452 100.457 68.3214C100.209 68.4976 99.899 68.5744 99.5927 68.5354C99.443 68.5228 99.2975 68.482 99.1647 68.4154C99.0319 68.3487 98.9144 68.2575 98.8192 68.1472C98.724 68.0368 98.6528 67.9095 98.6101 67.7727C98.5673 67.636 98.5536 67.4924 98.57 67.3506C98.6178 67.0621 98.7818 66.8026 99.0273 66.6268C99.2728 66.451 99.5806 66.3728 99.8857 66.4087C100.036 66.4212 100.181 66.462 100.314 66.5286C100.448 66.5952 100.565 66.6863 100.661 66.7965C100.757 66.9068 100.829 67.034 100.872 67.1708C100.916 67.3076 100.93 67.4513 100.915 67.5935Z" fill="#263238"/>
<path d="M106.645 50.0168C107.269 51.018 108.323 51.9777 109.551 51.9777C110.001 51.9329 110.447 51.8557 110.885 51.7467C111.285 52.031 111.035 53.4054 110.698 53.7549C110.387 54.0507 110.049 54.3202 109.688 54.5606C111.035 55.4314 112.376 55.2004 113.953 54.8272C113.666 56.0445 113.047 57.169 112.16 58.0888C111.273 59.0086 110.148 59.6916 108.896 60.0699C108.507 60.2209 108.086 60.2819 107.668 60.2479C107.249 60.2139 106.845 60.0859 106.489 59.8744C105.971 59.3674 105.667 58.6969 105.635 57.9906C105.224 55.4424 105.146 52.8556 105.404 50.2894L106.645 50.0168Z" fill="#263238"/>
<path d="M90.5384 96.7753C90.5384 96.7753 96.0258 98.8901 99.1499 106.106C101.345 111.177 113.554 127.183 113.554 127.183L146.017 134.032L147.127 143.871L95.2027 143.463L87.988 121.633L90.5384 96.7753Z" fill="#FED36A"/>
<path d="M68.676 87.6819L62.9142 89.9804C57.5827 92.1012 50.7608 96.9885 48.4723 102.036C42.9787 114.192 38.0026 129.814 36.0945 143.634C34.1676 157.574 38.0026 178.201 38.0026 178.201L86.7284 151.75L83.8787 149.861L93.1137 102.137L91.3927 96.3606L92.5401 91.4733C92.5401 91.4733 79.6134 86.5445 70.1975 83.0078L68.676 87.6819Z" fill="#FED36A"/>
<g opacity="0.3">
<path d="M64.0242 164.41C64.203 162.04 64.3817 159.657 64.5605 157.26C63.989 157.777 63.241 158.082 62.4528 158.119C63.6718 157.013 64.7535 155.779 65.6767 154.44L63.4567 155.346C64.2397 154.774 64.8787 154.044 65.3275 153.208C64.1364 152.325 62.459 152.473 60.9625 152.615C53.2614 153.356 45.4917 152.864 37.7594 152.372C36.9849 152.33 36.2295 152.128 35.5457 151.78C35.5457 151.78 35.3898 149.766 35.7328 149.013C36.0758 148.261 36.612 148.48 37.4227 148.202C38.2457 147.964 39.1004 147.84 39.9606 147.835C49.3703 147.361 58.7987 148.095 68.1897 148.836C68.7752 148.827 69.3503 148.984 69.8421 149.286C70.6091 149.878 70.5405 150.992 70.4096 151.922C69.9273 155.263 69.4493 158.602 68.9753 161.94" fill="black"/>
</g>
<path d="M92.54 100.217C92.5394 100.368 92.5248 100.519 92.4964 100.667L92.2969 101.941C92.1223 103.043 91.8416 104.642 91.4737 106.609C90.7379 110.549 89.6342 115.969 88.3559 121.94C87.0776 127.912 85.7805 133.309 84.8514 137.207C84.3837 139.132 84.0034 140.702 83.729 141.822C83.598 142.343 83.492 142.758 83.411 143.072C83.382 143.22 83.336 143.365 83.2738 143.504C83.29 143.355 83.315 143.206 83.3486 143.06C83.411 142.74 83.4983 142.319 83.6105 141.798C83.8537 140.666 84.2341 139.096 84.6269 137.159L88.0067 121.893C89.3162 115.922 90.4573 110.507 91.2493 106.579C91.6296 104.642 91.9476 103.061 92.1721 101.929C92.2781 101.408 92.3654 100.987 92.4278 100.667C92.4492 100.514 92.4868 100.363 92.54 100.217Z" fill="#263238"/>
<path d="M48.4723 167.97C48.5596 167.868 48.6578 167.775 48.7654 167.692L49.6384 166.928C50.0126 166.596 50.4865 166.199 51.0539 165.743C51.6214 165.287 52.2449 164.777 52.9808 164.25C54.4212 163.154 56.1984 161.928 58.225 160.642C60.2516 159.357 62.59 158.053 65.0406 156.798C67.4912 155.542 69.9793 154.499 72.2366 153.616C74.4939 152.734 76.5642 152.052 78.3289 151.543C79.2019 151.265 80.0125 151.063 80.7172 150.874C81.4218 150.684 82.0329 150.536 82.5318 150.423L83.6916 150.174C83.8231 150.135 83.9592 150.111 84.0969 150.103C83.971 150.159 83.8393 150.203 83.7041 150.234L82.5629 150.542C82.0703 150.672 81.4655 150.832 80.7671 151.039C80.0687 151.247 79.2705 151.46 78.3975 151.75C76.6515 152.289 74.5937 153.006 72.3489 153.883C70.104 154.76 67.6783 155.832 65.1965 157.07C62.7147 158.308 60.4262 159.623 58.3871 160.879C56.348 162.135 54.5709 163.355 53.1179 164.434C52.3759 164.949 51.7398 165.459 51.1662 165.885C50.5925 166.312 50.1123 166.703 49.7195 167.017L48.8091 167.733C48.7061 167.824 48.5932 167.903 48.4723 167.97Z" fill="#263238"/>
<path d="M73.4837 150.5C73.5274 150.577 68.7882 153.107 62.883 156.152C56.9778 159.197 52.1888 161.608 52.1451 161.531C52.1015 161.454 56.8406 158.93 62.7458 155.879C68.651 152.829 73.4401 150.429 73.4837 150.5Z" fill="#263238"/>
<g opacity="0.3">
<path d="M56.3605 113.937C59.3848 126.378 68.6324 137.479 80.9416 142.544C72.0864 133.539 63.8744 123.982 56.3605 113.937Z" fill="black"/>
</g>
<g opacity="0.3">
<path d="M91.7668 104.482C92.9578 109.743 92.0724 116.33 89.2725 120.993L88.5804 119.63C89.5594 115.679 90.9624 108.671 91.7419 104.482" fill="black"/>
</g>
<path d="M117.67 230.013L111.827 246.707C111.827 246.707 127.734 257.962 126.967 261.144L92.4839 251.547L100.459 225.173L117.67 230.013Z" fill="#455A64"/>
<g opacity="0.3">
<path d="M117.67 230.013L111.827 246.707C111.827 246.707 127.734 257.962 126.967 261.144L92.4839 251.547L100.459 225.173L117.67 230.013Z" fill="black"/>
</g>
<path d="M101.601 242.323C101.239 242.326 100.892 242.456 100.626 242.688C100.36 242.92 100.194 243.237 100.16 243.579C100.149 243.922 100.278 244.255 100.52 244.51C100.761 244.765 101.097 244.922 101.457 244.947C101.84 244.943 102.208 244.803 102.489 244.556C102.77 244.309 102.945 243.971 102.979 243.609C102.95 243.25 102.776 242.917 102.493 242.678C102.21 242.439 101.841 242.314 101.463 242.329" fill="#E0E0E0"/>
<g opacity="0.6">
<path d="M92.4839 251.547L93.3944 248.916L126.119 259.1C126.119 259.1 127.46 260.16 126.967 261.143L92.4839 251.547Z" fill="white"/>
</g>
<path d="M112.438 246.695C112.382 246.855 111.522 246.695 110.53 246.979C109.539 247.264 108.896 247.809 108.759 247.702C108.622 247.595 109.158 246.742 110.362 246.422C111.565 246.102 112.519 246.559 112.438 246.695Z" fill="#263238"/>
<path d="M115.618 249.124C115.618 249.29 114.795 249.361 114.016 249.876C113.236 250.392 112.85 251.061 112.681 251.008C112.513 250.954 112.681 250.024 113.673 249.396C114.664 248.768 115.662 248.97 115.618 249.124Z" fill="#263238"/>
<path d="M116.404 253.81C116.242 253.81 116.254 252.939 116.953 252.181C117.651 251.422 118.555 251.292 118.58 251.446C118.605 251.6 117.957 251.932 117.414 252.56C116.872 253.188 116.579 253.839 116.404 253.81Z" fill="#263238"/>
<path d="M113.324 242.744C113.211 242.874 112.507 242.435 111.534 242.234C110.561 242.033 109.732 242.11 109.663 241.944C109.595 241.778 110.505 241.411 111.646 241.665C112.787 241.92 113.448 242.649 113.324 242.744Z" fill="#263238"/>
<path d="M127.728 237.465L126.999 255.048C126.999 255.048 145.569 261.653 145.762 264.917L109.832 264.799L109.763 237.359L127.728 237.465Z" fill="#455A64"/>
<path d="M115.893 253.531C115.546 253.629 115.25 253.846 115.061 254.139C114.872 254.432 114.804 254.781 114.87 255.119C114.962 255.451 115.184 255.738 115.492 255.918C115.799 256.099 116.169 256.161 116.523 256.09C116.888 255.985 117.2 255.755 117.397 255.444C117.594 255.133 117.662 254.764 117.589 254.408C117.458 254.071 117.194 253.795 116.853 253.64C116.512 253.484 116.121 253.46 115.762 253.573" fill="#E0E0E0"/>
<g opacity="0.6">
<path d="M109.832 264.799L109.938 262.032L144.352 263.176C144.352 263.176 145.949 263.845 145.762 264.917L109.832 264.799Z" fill="white"/>
</g>
<path d="M127.585 254.876C127.585 255.042 126.699 255.113 125.832 255.646C124.966 256.179 124.504 256.878 124.342 256.831C124.18 256.783 124.448 255.8 125.508 255.172C126.568 254.544 127.622 254.722 127.585 254.876Z" fill="#263238"/>
<path d="M131.345 256.369C131.382 256.529 130.622 256.807 130.023 257.512C129.424 258.217 129.25 258.963 129.075 258.952C128.9 258.94 128.794 258.004 129.555 257.139C130.316 256.274 131.345 256.209 131.345 256.369Z" fill="#263238"/>
<path d="M133.459 260.658C133.297 260.693 133.06 259.858 133.509 258.952C133.958 258.045 134.787 257.678 134.862 257.814C134.937 257.951 134.425 258.442 134.064 259.195C133.702 259.947 133.646 260.646 133.459 260.658Z" fill="#263238"/>
<path d="M127.279 250.848C127.204 251.002 126.4 250.771 125.408 250.848C124.417 250.925 123.644 251.203 123.538 251.061C123.432 250.919 124.161 250.326 125.365 250.267C126.568 250.208 127.366 250.717 127.279 250.848Z" fill="#263238"/>
<path d="M84.6831 151.365C84.6831 151.365 127.753 162.029 133.103 169.084C137.618 175.073 113.91 236.227 113.91 236.227L95.2027 234.693L103.272 183.521L55.0136 168.948L62.3031 151.342L84.6831 151.365Z" fill="#263238"/>
<path d="M87.7697 160.95C87.7697 160.95 131.8 171.11 136.252 178.331C138.329 181.702 136.963 192.768 136.19 197.993C135.666 201.512 127.884 250.753 127.884 250.753H108.846L109.264 195.138L63.5191 186.376C63.5191 186.376 38.9629 188.153 38.0026 178.201L48.2541 165.002L72.4486 153.646L87.7697 160.95Z" fill="#263238"/>
<path d="M84.4149 159.671C84.4149 159.671 84.6332 159.718 85.0385 159.831L86.9092 160.322L94.0928 162.23C97.2106 163.059 101.027 164.072 105.436 165.316C109.844 166.56 114.839 168.065 120.258 170.014C122.972 170.978 125.774 172.076 128.663 173.308L130.846 174.244C131.581 174.585 132.297 174.963 132.991 175.375C133.701 175.798 134.37 176.277 134.993 176.809C135.64 177.349 136.182 177.993 136.595 178.711C138.079 185.12 137.181 192.129 136.078 199.291C135.598 202.898 134.98 206.577 134.4 210.339C133.82 214.101 133.203 217.951 132.586 221.861C131.339 229.687 130.091 237.791 128.77 246.085C128.52 247.655 128.277 249.218 128.027 250.771V250.907H108.697V250.753C108.865 229.675 109.021 210.588 109.146 195.144L109.246 195.256L76.7138 188.971L67.8404 187.241L65.5332 186.785C65.0094 186.678 64.7475 186.613 64.7475 186.613L65.5395 186.75L67.8591 187.176L76.77 188.835L109.289 195.008H109.389V195.108C109.283 210.552 109.152 229.64 109.009 250.723L108.846 250.569H127.878L127.722 250.7C127.965 249.141 128.215 247.583 128.458 246.014L132.28 221.79C132.904 217.872 133.511 214.032 134.101 210.268C134.687 206.506 135.311 202.827 135.797 199.22C136.055 197.419 136.306 195.642 136.552 193.888C136.814 192.162 136.976 190.424 137.038 188.681C137.1 186.963 137.1 185.271 137.038 183.604C137.001 182.769 136.951 181.945 136.876 181.128C136.869 180.326 136.697 179.533 136.371 178.794C135.974 178.102 135.453 177.483 134.831 176.963C134.222 176.442 133.567 175.972 132.873 175.559C132.189 175.146 131.481 174.77 130.752 174.433L128.582 173.492C125.702 172.265 122.902 171.157 120.195 170.192C114.789 168.231 109.794 166.732 105.398 165.453C101.002 164.173 97.1857 163.166 94.074 162.319L86.903 160.399L85.0323 159.878C84.627 159.742 84.4149 159.671 84.4149 159.671Z" fill="#455A64"/>
<path d="M145.394 134.517C145.674 134.114 149.31 130.128 150.289 130.128C151.268 130.128 152.39 131.194 152.39 131.194C153.045 130.908 153.775 130.816 154.486 130.927C155.327 131.194 159.243 134.381 159.243 135.578V137.574C159.332 138.102 159.332 138.64 159.243 139.168C159.106 140.098 156.749 141.691 156.749 141.691H143.299C143.299 141.691 140.736 140.05 141.054 138.504C141.372 136.958 145.394 134.517 145.394 134.517Z" fill="#FFBE9D"/>
<path d="M152.39 131.194C152.682 131.32 152.962 131.471 153.226 131.644L155.446 132.977C155.702 133.119 155.948 133.277 156.182 133.451C156.429 133.669 156.616 133.941 156.724 134.245C156.809 134.566 156.849 134.897 156.843 135.228L156.899 136.247C156.974 137.639 157.048 139.168 157.129 140.767L157.167 141.49V141.62L157.036 141.65L156.213 141.839H156.175C155.791 141.828 155.42 141.697 155.122 141.466C154.847 141.249 154.616 140.986 154.442 140.69C154.126 140.151 153.889 139.573 153.737 138.972C153.476 137.968 153.321 136.942 153.276 135.909L153.351 136.004L151 135.127C150.709 135.03 150.427 134.909 150.158 134.766C150.46 134.824 150.756 134.908 151.043 135.015L153.425 135.803H153.494V135.874C153.566 136.89 153.739 137.898 154.012 138.883C154.165 139.455 154.397 140.005 154.704 140.518C154.838 140.789 155.043 141.022 155.3 141.195C155.557 141.369 155.856 141.476 156.169 141.508H156.132L156.955 141.312L156.83 141.472L156.793 140.743C156.724 139.144 156.649 137.621 156.587 136.223C156.587 135.874 156.587 135.536 156.55 135.204C156.556 134.896 156.524 134.588 156.456 134.286C156.37 134.022 156.213 133.783 156.001 133.593C155.779 133.423 155.548 133.265 155.309 133.119L153.145 131.709C152.878 131.558 152.626 131.386 152.39 131.194Z" fill="#EB996E"/>
<path d="M143.299 141.235C143.594 141.175 143.895 141.137 144.197 141.123L146.647 140.939H146.685C147.596 141.143 148.518 141.301 149.447 141.413C149.983 141.482 150.522 141.524 151.062 141.537C151.325 141.578 151.593 141.563 151.849 141.494C152.104 141.424 152.34 141.301 152.54 141.135C152.707 140.908 152.789 140.635 152.771 140.359C152.771 140.068 152.727 139.766 152.715 139.458C152.679 139.207 152.551 138.976 152.353 138.806C152.156 138.618 151.931 138.459 151.686 138.332C150.796 137.907 149.794 137.738 148.805 137.847C148.45 137.878 148.093 137.829 147.762 137.703C147.431 137.578 147.137 137.379 146.903 137.124C146.61 136.727 146.635 136.437 146.654 136.443C146.736 136.657 146.854 136.857 147.003 137.035C147.236 137.257 147.52 137.426 147.832 137.528C148.144 137.631 148.477 137.665 148.805 137.628C149.838 137.482 150.893 137.639 151.829 138.078C152.101 138.215 152.351 138.389 152.571 138.593C152.831 138.816 152.995 139.122 153.033 139.452C153.033 139.725 153.095 140.045 153.095 140.353C153.112 140.7 153.004 141.043 152.789 141.324C152.572 141.563 152.275 141.724 151.948 141.78C151.654 141.833 151.354 141.851 151.056 141.834C150.482 141.834 149.933 141.762 149.41 141.697C148.47 141.569 147.54 141.389 146.622 141.158H146.66L144.209 141.241C143.906 141.27 143.601 141.268 143.299 141.235Z" fill="#EB996E"/>
<path d="M156.986 141.182C157.298 140.39 157.66 139.616 158.071 138.866C158.387 138.069 158.806 137.313 159.318 136.615C159.103 137.437 158.787 138.232 158.377 138.984C158.059 139.791 157.587 140.536 156.986 141.182Z" fill="#EB996E"/>
<path d="M127.847 143.877L176.292 144.47L191.881 102.919C192.048 102.503 192.04 102.042 191.86 101.631C191.681 101.22 191.342 100.89 190.915 100.709C190.684 100.607 190.434 100.552 190.18 100.547C189.927 100.542 189.674 100.588 189.44 100.68C189.205 100.772 188.994 100.91 188.818 101.084C188.643 101.259 188.507 101.466 188.42 101.692L173.049 141.04L127.803 141.466C127.472 141.466 127.155 141.591 126.921 141.813C126.687 142.035 126.556 142.337 126.556 142.651C126.55 142.814 126.579 142.976 126.642 143.127C126.704 143.278 126.799 143.416 126.92 143.531C127.041 143.646 127.186 143.736 127.346 143.796C127.505 143.855 127.675 143.883 127.847 143.877Z" fill="#263238"/>
<path d="M55.6559 113.007C55.6559 113.007 79.3515 143.611 83.0244 143.611H117.601V131.17L91.455 125.311C91.455 125.311 78.5846 100.016 75.7286 96.7753C72.8726 93.5348 65.2589 89.1688 59.5657 94.0502C53.8725 98.9316 55.6559 113.007 55.6559 113.007Z" fill="#FED36A"/>
<path d="M117.576 132.396L123.245 131.964C123.245 131.964 123.363 129.968 124.604 129.263C125.845 128.558 125.714 127.029 126.475 127.148C126.887 127.225 127.31 127.225 127.722 127.148L132.417 123.392L136.377 120.927L139.495 120.335C139.495 120.335 141.366 120.803 139.495 122.444L137.512 123.504L135.785 125.151L139.738 123.303C139.92 123.22 140.119 123.176 140.321 123.176C140.523 123.176 140.722 123.22 140.904 123.303C141.974 123.742 142.994 124.284 143.947 124.92C144.033 124.996 144.101 125.088 144.147 125.19C144.194 125.292 144.218 125.402 144.218 125.513C144.218 125.624 144.194 125.734 144.147 125.836C144.101 125.937 144.033 126.029 143.947 126.105L145.674 127.515C145.674 127.515 146.049 129.399 144.066 128.925L142.463 128.575L140.318 130.554C140.318 130.554 147.495 129.144 147.988 129.369C148.481 129.594 149.104 130.661 147.988 131.597C146.872 132.533 142.544 132.302 141.559 133.244C140.574 134.185 134.026 139.861 132.417 140.21C130.809 140.56 117.614 143.622 117.614 143.622L117.576 132.396Z" fill="#FFBE9D"/>
<path d="M145.625 127.497C145.286 127.301 144.961 127.083 144.652 126.846C144.359 126.638 144.028 126.395 143.604 126.135C143.405 126.004 143.197 125.874 142.981 125.744C142.787 125.607 142.559 125.52 142.32 125.489C141.828 125.59 141.361 125.777 140.942 126.04C140.518 126.259 140.143 126.467 139.825 126.632C139.499 126.851 139.147 127.033 138.778 127.177C139.04 126.89 139.349 126.646 139.694 126.455C140 126.253 140.368 126.022 140.792 125.785C141.004 125.667 141.228 125.548 141.465 125.43C141.723 125.288 142.011 125.203 142.307 125.181C142.394 125.165 142.483 125.165 142.569 125.181C142.642 125.204 142.713 125.232 142.781 125.264C142.908 125.322 143.031 125.387 143.149 125.459C143.38 125.596 143.592 125.732 143.773 125.874C144.165 126.147 144.508 126.413 144.789 126.644C145.356 127.13 145.662 127.468 145.625 127.497Z" fill="#EB996E"/>
<path d="M128.258 126.692C128.308 126.763 127.722 127.249 127.011 127.876C126.3 128.504 125.764 129.026 125.695 128.961C125.958 128.456 126.33 128.01 126.787 127.651C127.187 127.222 127.692 126.892 128.258 126.692Z" fill="#EB996E"/>
<path d="M75.7286 96.7753C76.237 97.3703 76.6957 98.0021 77.1004 98.665C77.9173 99.9505 79.0709 101.87 80.4553 104.352C83.2426 109.316 87.0776 116.514 91.5735 125.276L91.4862 125.205L117.639 131.046H117.763V143.812H116.036H86.6473H83.305C83.1596 143.82 83.0138 143.82 82.8685 143.812C82.7214 143.785 82.5788 143.739 82.4445 143.676C82.1832 143.545 81.9348 143.393 81.7024 143.22C81.2678 142.912 80.8515 142.582 80.4553 142.23C78.9407 140.876 77.5024 139.446 76.1464 137.947C73.49 135.08 71.1578 132.314 69.0065 129.778C64.7538 124.695 61.4301 120.495 59.1479 117.592L56.5351 114.227C56.2483 113.842 56.03 113.552 55.8679 113.345C55.7057 113.137 55.6496 113.037 55.6496 113.037C55.6496 113.037 55.7369 113.132 55.8991 113.327L56.5912 114.192L59.2539 117.509C61.5673 120.394 64.9221 124.571 69.1936 129.636C71.3324 132.16 73.6958 134.914 76.3522 137.776C77.7083 139.261 79.1444 140.679 80.6548 142.023C81.0505 142.368 81.4669 142.69 81.9019 142.989C82.1147 143.135 82.34 143.263 82.5754 143.374C82.806 143.479 83.0628 143.522 83.3174 143.498H86.6598H116.049H117.614L117.452 143.652C117.452 139.387 117.452 135.216 117.452 131.212L117.57 131.36L91.4239 125.448H91.3615L91.3303 125.394C86.8656 116.621 83.0618 109.399 80.3181 104.429C78.9525 101.935 77.8238 100.01 77.0256 98.7124C76.6203 98.0726 76.3148 97.575 76.0716 97.267C75.8284 96.9589 75.7286 96.7753 75.7286 96.7753Z" fill="#263238"/>
<path d="M72.2865 94.7729C72.2865 94.8263 71.4758 94.5182 70.1539 94.2339C69.3772 94.0703 68.5897 93.9575 67.7968 93.8962C66.8275 93.8254 65.854 93.8254 64.8847 93.8962C63.9182 93.9926 62.9612 94.161 62.0225 94.3997C61.2549 94.5989 60.5027 94.8483 59.7714 95.1462C58.5243 95.6616 57.8134 96.0999 57.7822 96.0525C57.9229 95.918 58.0824 95.8023 58.2561 95.7089C58.7105 95.4245 59.1856 95.1711 59.6779 94.9507C60.4078 94.6171 61.1648 94.3398 61.9414 94.1213C62.8934 93.8625 63.8681 93.6861 64.8535 93.5941C65.8408 93.508 66.8344 93.508 67.8217 93.5941C68.6276 93.6724 69.426 93.809 70.21 94.0028C70.7353 94.1333 71.2501 94.2996 71.7502 94.5004C72.1056 94.6426 72.2989 94.7492 72.2865 94.7729Z" fill="#263238"/>
<path d="M86.6909 130.992C87.0771 129.93 87.6763 128.948 88.4556 128.102C89.1488 127.189 90.0238 126.414 91.031 125.821C91.0933 125.892 89.8961 126.863 88.7051 128.291C87.514 129.719 86.7845 131.034 86.6909 130.992Z" fill="#263238"/>
<path d="M85.899 127.177C87.2242 126.062 88.9503 125.475 90.7192 125.536C90.7192 125.631 89.5781 125.744 88.2249 126.206C86.8718 126.668 85.9551 127.254 85.899 127.177Z" fill="#263238"/>
<path d="M108.117 191.062C107.618 190.073 106.408 189.64 105.305 189.285C83.5232 182.615 60.1518 179.416 37.6347 183.302C34.9284 183.77 32.1348 184.38 29.9834 186.015C27.8321 187.65 26.5413 190.612 27.6887 192.982L32.3094 194.392C55.3659 191.953 78.6447 192.108 101.663 194.854C103.216 195.043 104.849 195.227 106.284 194.646C107.718 194.066 108.797 192.389 108.117 191.062Z" fill="#455A64"/>
<path d="M82.8435 184.22C82.7941 184.229 82.7433 184.229 82.6939 184.22L82.2761 184.167L80.661 183.942C79.2643 183.728 77.2376 183.42 74.7184 183.148C68.1677 182.412 61.5708 182.113 54.9762 182.253C53.0493 182.289 51.1662 182.378 49.364 182.52C47.5619 182.662 45.8035 182.745 44.1261 182.887C43.9185 182.903 43.71 182.903 43.5025 182.887C43.3075 182.87 43.1113 182.87 42.9163 182.887C42.5216 182.913 42.1296 182.968 41.744 183.053L39.4867 183.503C38.0338 183.811 36.6993 184.149 35.4958 184.528C33.5947 185.091 31.7793 185.887 30.0957 186.898C29.4721 187.259 29.0606 187.573 28.7675 187.792L28.4308 188.035C28.356 188.088 28.3123 188.118 28.3061 188.112L28.4058 188.011L28.7239 187.745C29.1386 187.405 29.5738 187.089 30.0271 186.797C31.6976 185.733 33.5149 184.894 35.4272 184.303C36.7399 183.884 38.0739 183.528 39.4243 183.237L41.6879 182.774C42.0968 182.677 42.5143 182.616 42.935 182.591C43.1425 182.574 43.3511 182.574 43.5586 182.591C43.7658 182.613 43.975 182.613 44.1822 182.591C45.8346 182.443 47.6056 182.342 49.4202 182.206C51.2348 182.07 53.1616 181.969 55.0323 181.933C61.6212 181.791 68.2121 182.117 74.7496 182.911C77.2439 183.213 79.2892 183.556 80.6798 183.805L82.2886 184.09L82.7001 184.173L82.8435 184.22Z" fill="#263238"/>
<path d="M28.2562 150.5L65.3835 151.733C65.5129 151.737 65.6398 151.767 65.756 151.822C65.8722 151.876 65.975 151.953 66.058 152.047C66.1409 152.141 66.202 152.251 66.2372 152.37C66.2725 152.488 66.2812 152.612 66.2628 152.734L60.9188 195.031H69.2871L73.6022 148.468C73.6509 148.093 73.6168 147.712 73.5021 147.349C73.3875 146.986 73.1947 146.651 72.9361 146.363C72.6776 146.075 72.3588 145.841 72 145.676C71.6413 145.511 71.2505 145.419 70.8523 145.406L27.2585 143.925L28.2562 150.5Z" fill="#455A64"/>
<path d="M225.573 147.42H219.755V148.646L232.563 264.953H238.537L225.573 147.42Z" fill="#455A64"/>
<path d="M95.6828 147.42H101.501V148.67L89.5594 264.917H83.5856L95.6828 147.42Z" fill="#455A64"/>
<path d="M95.6828 147.42C95.6828 147.42 95.6828 147.627 95.6329 148.012C95.583 148.397 95.5332 149.013 95.4583 149.789C95.3024 151.347 95.078 153.646 94.7849 156.596C94.1613 162.52 93.3195 171.069 92.2532 181.673C90.0832 202.857 87.0838 232.211 83.7414 264.911L83.5856 264.739H89.5594L89.3972 264.882C95.0592 210.274 99.8545 164.013 101.451 148.646C101.451 148.054 101.451 147.722 101.451 147.396L101.495 147.438H97.1295H96.057H95.7015H96.0445H97.1046L101.519 147.408H101.563V147.455C101.563 147.781 101.563 148.125 101.563 148.705C99.9979 164.072 95.29 210.315 89.7153 264.959V265.101H83.4172V264.929C86.8094 232.193 89.8587 202.804 92.0599 181.596C93.1761 171.009 94.0678 162.467 94.6913 156.561C95.0031 153.599 95.2463 151.347 95.4084 149.789C95.4957 149.025 95.5581 148.439 95.6018 148.012C95.6454 147.586 95.6828 147.42 95.6828 147.42Z" fill="#263238"/>
<path d="M248.189 143.634H81.6837V148.64H248.189V143.634Z" fill="#455A64"/>
<path d="M230.461 148.646C230.461 148.729 197.275 148.8 156.35 148.8C115.425 148.8 82.2262 148.729 82.2262 148.646C82.2262 148.563 115.406 148.492 156.35 148.492C197.294 148.492 230.461 148.551 230.461 148.646Z" fill="#263238"/>
</svg>
